<?xml version="1.0" encoding="UTF-8"?>
<svg version="1.1" xmlns="http://www.w3.org/2000/svg" width="1024" height="1024">
<path d="M0 0 C337.92 0 675.84 0 1024 0 C1024 337.92 1024 675.84 1024 1024 C686.08 1024 348.16 1024 0 1024 C0 686.08 0 348.16 0 0 Z " fill="#FAFAFB" transform="translate(0,0)"/>
<path d="M0 0 C1.3965834 -0.0076664 1.3965834 -0.0076664 2.82138062 -0.01548767 C5.88448605 -0.02933239 8.94736513 -0.02843051 12.01049805 -0.02612305 C14.15130191 -0.03001323 16.292105 -0.03434857 18.4329071 -0.03910828 C22.91574609 -0.04655983 27.39850631 -0.04628724 31.88134766 -0.04101562 C37.60749086 -0.03522733 43.33330994 -0.05214189 49.0593996 -0.0753603 C53.48023849 -0.09014064 57.90100014 -0.0909634 62.32185936 -0.08785057 C64.43203561 -0.08836178 66.54221641 -0.09356166 68.65236855 -0.10366249 C71.61220561 -0.11609085 74.57142181 -0.10919657 77.53125 -0.09765625 C78.39132156 -0.10529999 79.25139313 -0.11294373 80.13752747 -0.12081909 C90.26656806 -0.0341541 98.44959168 2.75332578 106.0222168 9.5871582 C115.92148558 20.5017366 116.89829995 30.53173513 116.6472168 44.8371582 C116.63214071 46.33779579 116.61845749 47.83844806 116.60620117 49.33911133 C116.57343161 52.98460272 116.52181159 56.62953455 116.4597168 60.2746582 C117.33287033 60.26577576 118.20602386 60.25689331 119.1056366 60.2477417 C127.38672161 60.16716029 135.66767247 60.10647439 143.94906139 60.06740952 C148.20530794 60.04664976 152.46122701 60.01854838 156.71728516 59.97290039 C160.83462495 59.92902312 164.95165236 59.90543411 169.06920815 59.89514923 C170.62989523 59.88783215 172.19056775 59.87354664 173.75111961 59.85173798 C189.37257252 59.64236982 201.97127517 62.43771168 213.6784668 73.34106445 C220.52528429 80.48168195 225.57044599 89.64681462 225.59393787 99.71575928 C225.59839572 100.60458896 225.60285356 101.49341864 225.60744649 102.40918255 C225.60716995 103.86771507 225.60716995 103.86771507 225.60688782 105.35571289 C225.61056451 106.39196965 225.61424119 107.42822641 225.6180293 108.4958849 C225.62907061 111.97943931 225.63291078 115.4629639 225.63671875 118.9465332 C225.64298314 121.43993729 225.64962992 123.93334043 225.65663147 126.42674255 C225.67586221 133.91796796 225.68646109 141.40918545 225.69535926 148.9004283 C225.69974554 152.43139197 225.70511155 155.96235415 225.71034813 159.49331665 C225.72736047 171.23722522 225.7418528 182.98113288 225.74909687 194.72505188 C225.75100666 197.77169801 225.752927 200.81834413 225.75488281 203.86499023 C225.75536655 204.62218727 225.75585029 205.37938431 225.75634869 206.15952671 C225.76464209 218.41497988 225.78996728 230.67033523 225.82246349 242.92574573 C225.85558161 255.51879045 225.87355 268.11178555 225.87674111 280.70487404 C225.87890204 287.77104381 225.88758915 294.83707102 225.91320229 301.90319824 C225.93725797 308.55490901 225.94070518 315.20641007 225.9304409 321.85817146 C225.92994607 324.2945548 225.93625101 326.73095085 225.94999695 329.16729546 C226.04596584 347.19102224 225.23412616 360.6855487 212.39331055 374.49731445 C204.91803967 381.65164347 195.69754898 386.3884806 185.25057125 386.40887928 C183.66037211 386.41556605 183.66037211 386.41556605 182.03804773 386.4223879 C180.87435413 386.42220354 179.71066053 386.42201917 178.51170349 386.42182922 C177.2746471 386.42550591 176.03759071 386.4291826 174.76304775 386.4329707 C171.32723009 386.44209116 167.89146017 386.44670584 164.45563495 386.44936001 C160.75061291 386.45326616 157.04560466 386.46284434 153.34059143 386.47157288 C144.39144505 386.49132935 135.44229756 386.50140283 126.49313483 386.51030067 C122.2771563 386.51468523 118.06117903 386.52005164 113.84520149 386.52528954 C99.8271673 386.54230162 85.80913389 386.55679504 71.79109097 386.56403828 C68.15385881 386.56594812 64.51662666 386.56786846 60.87939453 386.56982422 C59.97539506 386.57030796 59.07139559 386.5707917 58.1400022 386.5712901 C43.50096613 386.5795876 28.86201185 386.60491987 14.22301149 386.6374049 C-0.8119849 386.67049618 -15.84693974 386.68848894 -30.88197273 386.69168252 C-39.3213511 386.69384579 -47.76061024 386.70256749 -56.19995308 386.72814369 C-63.38848753 386.74987905 -70.57687378 386.75788723 -77.76543737 386.74817691 C-81.43065108 386.74364027 -85.09555919 386.74548086 -88.76073074 386.76493835 C-92.74174105 386.7858892 -96.7223333 386.77555863 -100.7033844 386.7624054 C-101.85146295 386.77337464 -102.99954149 386.78434389 -104.1824103 386.79564553 C-117.04127099 386.69332558 -127.12980443 382.09287649 -136.54418945 373.4309082 C-145.90482764 363.56483599 -148.85097981 351.068999 -148.80770874 337.86444092 C-148.81223985 336.84110067 -148.81677097 335.81776042 -148.82143939 334.76340985 C-148.83406072 331.34751654 -148.83246446 327.93178313 -148.83081055 324.51586914 C-148.83679721 322.06128231 -148.84360307 319.60669735 -148.85116577 317.15211487 C-148.8669867 311.18410248 -148.87327356 305.21615253 -148.87439053 299.24812499 C-148.87534287 294.39381724 -148.87946243 289.53952246 -148.88579178 284.68521881 C-148.90339381 270.90354574 -148.91263231 257.12190374 -148.91113083 243.34021935 C-148.91105092 242.59815937 -148.91097101 241.85609938 -148.91088867 241.09155273 C-148.91080691 240.34858016 -148.91072515 239.60560759 -148.91064091 238.8401207 C-148.90982836 226.80477674 -148.9289609 214.76955803 -148.95716541 202.73425028 C-148.98593852 190.35803435 -148.99970326 177.98187941 -148.99797785 165.60562921 C-148.99731547 158.66472343 -149.00274108 151.72394896 -149.02433395 144.78307343 C-149.04452034 138.25277128 -149.04382694 131.72269825 -149.02930069 125.19236565 C-149.02721396 122.80113507 -149.03190526 120.40988708 -149.04402161 118.01868629 C-149.12438467 101.05459623 -148.40949565 86.4624294 -136.6105957 73.0871582 C-127.97910189 64.74021913 -117.20760966 60.14087023 -105.29321289 60.16113281 C-104.57086456 60.16098679 -103.84851624 60.16084076 -103.10427856 60.16069031 C-100.72354093 60.16138537 -98.34288213 60.1691587 -95.9621582 60.17700195 C-94.30877729 60.17886758 -92.65539582 60.1802908 -91.00201416 60.18128967 C-86.65533923 60.18510347 -82.30869784 60.19492406 -77.96203613 60.20599365 C-73.52458144 60.21623222 -69.08712131 60.22079253 -64.6496582 60.22583008 C-55.94651783 60.23654734 -47.24340469 60.25361012 -38.5402832 60.2746582 C-38.5717041 59.30753906 -38.603125 58.34041992 -38.63549805 57.34399414 C-38.74546008 53.69883566 -38.81346297 50.05381797 -38.86987305 46.4074707 C-38.89974185 44.84016132 -38.94045408 43.27301456 -38.99291992 41.70629883 C-39.40988072 28.91950117 -37.62513477 19.59917006 -28.6652832 9.7746582 C-20.38299325 2.17072724 -10.96454918 -0.0313617 0 0 Z " fill="#0154B8" transform="translate(254.540283203125,296.725341796875)"/>
<path d="M0 0 C1.3965834 -0.0076664 1.3965834 -0.0076664 2.82138062 -0.01548767 C5.88448605 -0.02933239 8.94736513 -0.02843051 12.01049805 -0.02612305 C14.15130191 -0.03001323 16.292105 -0.03434857 18.4329071 -0.03910828 C22.91574609 -0.04655983 27.39850631 -0.04628724 31.88134766 -0.04101562 C37.60749086 -0.03522733 43.33330994 -0.05214189 49.0593996 -0.0753603 C53.48023849 -0.09014064 57.90100014 -0.0909634 62.32185936 -0.08785057 C64.43203561 -0.08836178 66.54221641 -0.09356166 68.65236855 -0.10366249 C71.61220561 -0.11609085 74.57142181 -0.10919657 77.53125 -0.09765625 C78.39132156 -0.10529999 79.25139313 -0.11294373 80.13752747 -0.12081909 C90.26656806 -0.0341541 98.44959168 2.75332578 106.0222168 9.5871582 C115.92148558 20.5017366 116.89829995 30.53173513 116.6472168 44.8371582 C116.63214071 46.33779579 116.61845749 47.83844806 116.60620117 49.33911133 C116.57343161 52.98460272 116.52181159 56.62953455 116.4597168 60.2746582 C117.33287033 60.26577576 118.20602386 60.25689331 119.1056366 60.2477417 C127.38672161 60.16716029 135.66767247 60.10647439 143.94906139 60.06740952 C148.20530794 60.04664976 152.46122701 60.01854838 156.71728516 59.97290039 C160.83462495 59.92902312 164.95165236 59.90543411 169.06920815 59.89514923 C170.62989523 59.88783215 172.19056775 59.87354664 173.75111961 59.85173798 C189.37257252 59.64236982 201.97127517 62.43771168 213.6784668 73.34106445 C220.52528429 80.48168195 225.57044599 89.64681462 225.59393787 99.71575928 C225.59839572 100.60458896 225.60285356 101.49341864 225.60744649 102.40918255 C225.60716995 103.86771507 225.60716995 103.86771507 225.60688782 105.35571289 C225.61056451 106.39196965 225.61424119 107.42822641 225.6180293 108.4958849 C225.62907061 111.97943931 225.63291078 115.4629639 225.63671875 118.9465332 C225.64298314 121.43993729 225.64962992 123.93334043 225.65663147 126.42674255 C225.67586221 133.91796796 225.68646109 141.40918545 225.69535926 148.9004283 C225.69974554 152.43139197 225.70511155 155.96235415 225.71034813 159.49331665 C225.72736047 171.23722522 225.7418528 182.98113288 225.74909687 194.72505188 C225.75100666 197.77169801 225.752927 200.81834413 225.75488281 203.86499023 C225.75536655 204.62218727 225.75585029 205.37938431 225.75634869 206.15952671 C225.76464209 218.41497988 225.78996728 230.67033523 225.82246349 242.92574573 C225.85558161 255.51879045 225.87355 268.11178555 225.87674111 280.70487404 C225.87890204 287.77104381 225.88758915 294.83707102 225.91320229 301.90319824 C225.93725797 308.55490901 225.94070518 315.20641007 225.9304409 321.85817146 C225.92994607 324.2945548 225.93625101 326.73095085 225.94999695 329.16729546 C226.04596584 347.19102224 225.23412616 360.6855487 212.39331055 374.49731445 C204.91803967 381.65164347 195.69754898 386.3884806 185.25057125 386.40887928 C183.66037211 386.41556605 183.66037211 386.41556605 182.03804773 386.4223879 C180.87435413 386.42220354 179.71066053 386.42201917 178.51170349 386.42182922 C177.2746471 386.42550591 176.03759071 386.4291826 174.76304775 386.4329707 C171.32723009 386.44209116 167.89146017 386.44670584 164.45563495 386.44936001 C160.75061291 386.45326616 157.04560466 386.46284434 153.34059143 386.47157288 C144.39144505 386.49132935 135.44229756 386.50140283 126.49313483 386.51030067 C122.2771563 386.51468523 118.06117903 386.52005164 113.84520149 386.52528954 C99.8271673 386.54230162 85.80913389 386.55679504 71.79109097 386.56403828 C68.15385881 386.56594812 64.51662666 386.56786846 60.87939453 386.56982422 C59.97539506 386.57030796 59.07139559 386.5707917 58.1400022 386.5712901 C43.50096613 386.5795876 28.86201185 386.60491987 14.22301149 386.6374049 C-0.8119849 386.67049618 -15.84693974 386.68848894 -30.88197273 386.69168252 C-39.3213511 386.69384579 -47.76061024 386.70256749 -56.19995308 386.72814369 C-63.38848753 386.74987905 -70.57687378 386.75788723 -77.76543737 386.74817691 C-81.43065108 386.74364027 -85.09555919 386.74548086 -88.76073074 386.76493835 C-92.74174105 386.7858892 -96.7223333 386.77555863 -100.7033844 386.7624054 C-101.85146295 386.77337464 -102.99954149 386.78434389 -104.1824103 386.79564553 C-117.04127099 386.69332558 -127.12980443 382.09287649 -136.54418945 373.4309082 C-145.90482764 363.56483599 -148.85097981 351.068999 -148.80770874 337.86444092 C-148.81223985 336.84110067 -148.81677097 335.81776042 -148.82143939 334.76340985 C-148.83406072 331.34751654 -148.83246446 327.93178313 -148.83081055 324.51586914 C-148.83679721 322.06128231 -148.84360307 319.60669735 -148.85116577 317.15211487 C-148.8669867 311.18410248 -148.87327356 305.21615253 -148.87439053 299.24812499 C-148.87534287 294.39381724 -148.87946243 289.53952246 -148.88579178 284.68521881 C-148.90339381 270.90354574 -148.91263231 257.12190374 -148.91113083 243.34021935 C-148.91105092 242.59815937 -148.91097101 241.85609938 -148.91088867 241.09155273 C-148.91080691 240.34858016 -148.91072515 239.60560759 -148.91064091 238.8401207 C-148.90982836 226.80477674 -148.9289609 214.76955803 -148.95716541 202.73425028 C-148.98593852 190.35803435 -148.99970326 177.98187941 -148.99797785 165.60562921 C-148.99731547 158.66472343 -149.00274108 151.72394896 -149.02433395 144.78307343 C-149.04452034 138.25277128 -149.04382694 131.72269825 -149.02930069 125.19236565 C-149.02721396 122.80113507 -149.03190526 120.40988708 -149.04402161 118.01868629 C-149.12438467 101.05459623 -148.40949565 86.4624294 -136.6105957 73.0871582 C-127.97910189 64.74021913 -117.20760966 60.14087023 -105.29321289 60.16113281 C-104.57086456 60.16098679 -103.84851624 60.16084076 -103.10427856 60.16069031 C-100.72354093 60.16138537 -98.34288213 60.1691587 -95.9621582 60.17700195 C-94.30877729 60.17886758 -92.65539582 60.1802908 -91.00201416 60.18128967 C-86.65533923 60.18510347 -82.30869784 60.19492406 -77.96203613 60.20599365 C-73.52458144 60.21623222 -69.08712131 60.22079253 -64.6496582 60.22583008 C-55.94651783 60.23654734 -47.24340469 60.25361012 -38.5402832 60.2746582 C-38.5717041 59.30753906 -38.603125 58.34041992 -38.63549805 57.34399414 C-38.74546008 53.69883566 -38.81346297 50.05381797 -38.86987305 46.4074707 C-38.89974185 44.84016132 -38.94045408 43.27301456 -38.99291992 41.70629883 C-39.40988072 28.91950117 -37.62513477 19.59917006 -28.6652832 9.7746582 C-20.38299325 2.17072724 -10.96454918 -0.0313617 0 0 Z M-4.7035408 79.30088806 C-18.40798881 79.42159174 -32.11139169 79.63088769 -45.81457615 79.84971237 C-52.12303807 79.95037538 -58.43141301 80.04321679 -64.74023438 80.1184082 C-70.91612663 80.19217469 -77.09146914 80.284788 -83.26688957 80.39078522 C-85.60190278 80.42768945 -87.93703086 80.45797234 -90.2722187 80.48134613 C-93.52304057 80.51515376 -96.77259583 80.57319914 -100.02294922 80.63696289 C-100.97414139 80.64128326 -101.92533356 80.64560364 -102.90534973 80.65005493 C-110.02068474 80.82815119 -115.3805083 82.50572654 -120.7824707 87.23950195 C-121.32129883 87.89047852 -121.86012695 88.54145508 -122.4152832 89.2121582 C-122.96958008 89.86055664 -123.52387695 90.50895508 -124.0949707 91.17700195 C-127.90075784 96.70053626 -127.82694633 101.74475053 -127.80097961 108.23713684 C-127.80480516 109.24848542 -127.80863071 110.25983401 -127.81257218 111.30182952 C-127.82290118 114.6949247 -127.81891015 118.08785064 -127.81494141 121.48095703 C-127.81928797 123.91203468 -127.82447093 126.34311095 -127.83042908 128.77418518 C-127.84244416 134.69514059 -127.84496956 140.61605393 -127.84262881 146.53701691 C-127.84084535 151.35090772 -127.84259591 156.16478477 -127.84685326 160.97867393 C-127.84744845 161.66397629 -127.84804363 162.34927864 -127.84865686 163.05534774 C-127.84986862 164.44759022 -127.85108276 165.8398327 -127.85229924 167.23207518 C-127.86317559 180.28872446 -127.86101204 193.34534792 -127.85491439 206.40199866 C-127.84974717 218.33998323 -127.86099532 230.27788615 -127.88001261 242.21585456 C-127.89939775 254.47895378 -127.9076457 266.7420144 -127.90388936 279.00512904 C-127.90197808 285.88779841 -127.90445757 292.77039833 -127.9186039 299.65305519 C-127.93177488 306.12664577 -127.9292484 312.60011391 -127.91619301 319.07370567 C-127.91382516 321.44887217 -127.91656932 323.82405013 -127.92481613 326.19920349 C-127.93526749 329.44340177 -127.92719528 332.68705011 -127.914505 335.93122864 C-127.92187929 336.86947048 -127.92925357 337.80771233 -127.93685132 338.77438575 C-127.87476211 346.32797831 -126.44274181 352.79675589 -121.2277832 358.5871582 C-120.39827148 359.54041992 -120.39827148 359.54041992 -119.55200195 360.51293945 C-114.00097771 365.37412768 -108.86996181 365.70757892 -101.83813477 365.65942383 C-100.87796448 365.6647966 -99.91779419 365.67016937 -98.92852783 365.67570496 C-96.84969338 365.68546557 -94.77081827 365.68843231 -92.6919632 365.68534851 C-89.3952553 365.68085966 -86.09908115 365.69490285 -82.8024292 365.71374512 C-75.79838921 365.7504944 -68.79440538 365.76422469 -61.7902832 365.7746582 C-53.6846049 365.78675914 -45.5791869 365.80843702 -37.47362518 365.85466003 C-34.23762115 365.86817141 -31.00195107 365.86406935 -27.76593018 365.85925293 C-25.76395248 365.86860082 -23.7619784 365.87877146 -21.76000977 365.88989258 C-20.87031494 365.88374435 -19.98062012 365.87759613 -19.06396484 365.8712616 C-13.57693677 365.92443199 -8.95172234 366.81554106 -3.75683212 368.59645844 C-0.45644371 369.6062817 2.6515132 369.63494369 6.0847168 369.5871582 C7.89842773 369.58135742 7.89842773 369.58135742 9.7487793 369.57543945 C13.49646109 369.38526295 13.49646109 369.38526295 17.15353394 368.27479553 C21.50183959 367.15865864 25.59701478 366.97517134 30.06958008 366.97167969 C31.30919117 366.95897396 31.30919117 366.95897396 32.57384491 366.94601154 C35.30924783 366.92018712 38.04453452 366.90796934 40.7800293 366.89575195 C42.73164587 366.87996552 44.68325538 366.86328242 46.63485718 366.84576416 C50.79121906 366.81006213 54.94756764 366.7800777 59.10400391 366.75448608 C65.60616178 366.71382649 72.10810638 366.65654217 78.61010742 366.59619141 C96.20102719 366.43540525 113.79203484 366.29493385 131.38335228 366.18582821 C137.97775692 366.1439466 144.57196781 366.08890106 151.16617775 366.02318668 C155.64284229 365.97939889 160.11914753 365.95288202 164.59600258 365.93997383 C167.97784199 365.92524537 171.35929158 365.88514399 174.7409668 365.84887695 C176.51870987 365.85180756 176.51870987 365.85180756 178.33236694 365.85479736 C186.18447244 365.73616869 191.59331636 364.6021875 197.7019043 359.3449707 C198.51014648 358.38204102 198.51014648 358.38204102 199.3347168 357.3996582 C199.88901367 356.76286133 200.44331055 356.12606445 201.0144043 355.4699707 C204.82808038 349.67730595 204.74902759 343.83790279 204.72714233 337.15396118 C204.733939 335.62953134 204.733939 335.62953134 204.74087298 334.07430494 C204.75352849 330.67050271 204.75189585 327.26686025 204.75024414 323.86303711 C204.75622862 321.42195937 204.76303398 318.98088353 204.77059937 316.53981018 C204.78643797 310.59827515 204.79270805 304.65677754 204.79382412 298.71522571 C204.79477539 293.88467248 204.79888961 289.05413232 204.80522537 284.22358322 C204.82283196 270.52050621 204.83206504 256.81746049 204.83056442 243.11437209 C204.83048451 242.3761044 204.8304046 241.63783671 204.83032227 240.87719727 C204.83019962 239.76843989 204.83019962 239.76843989 204.8300745 238.63728337 C204.82926155 226.65730853 204.84840296 214.6774594 204.876599 202.69752093 C204.90533884 190.38918832 204.91913872 178.080917 204.91741145 165.77254999 C204.91674797 158.86527659 204.92222173 151.95813501 204.94376755 145.05089188 C204.96390054 138.55510424 204.9632944 132.05952306 204.94873428 125.5637188 C204.9466415 123.18048509 204.95137492 120.79723408 204.9634552 118.41403008 C204.97888629 115.15879965 204.96961273 111.90453214 204.95419312 108.64932251 C204.9696238 107.2371465 204.9696238 107.2371465 204.98536623 105.79644167 C204.91284586 98.86109849 203.31460572 93.51771185 198.6784668 88.2512207 C197.82768555 87.58219727 197.82768555 87.58219727 196.9597168 86.8996582 C196.3925293 86.43817383 195.8253418 85.97668945 195.2409668 85.5012207 C191.30140777 82.78845418 188.47734343 82.01925292 183.65994263 81.96495056 C182.4745993 81.94681808 181.28925598 81.92868561 180.06799316 81.91000366 C178.77043091 81.90006378 177.47286865 81.8901239 176.13598633 81.87988281 C174.75237957 81.86235208 173.36878357 81.8439534 171.98519897 81.82475281 C169.00384171 81.78525605 166.02250138 81.75192901 163.04101944 81.72337151 C158.30462683 81.67797878 153.56846199 81.61897923 148.83224487 81.5582428 C141.31506133 81.46347754 133.79780459 81.37801356 126.28046787 81.29639679 C112.889421 81.15077962 99.49854578 80.99071009 86.10772789 80.82547194 C81.42312093 80.76804284 76.73849129 80.71503796 72.05379331 80.66562015 C46.23879214 80.38975845 46.23879214 80.38975845 33.92797852 79.74560547 C21.05000599 79.07270903 8.18753045 79.19399478 -4.7035408 79.30088806 Z " fill="#031121" transform="translate(254.540283203125,296.725341796875)"/>
<path d="M0 0 C6.28016217 5.70669524 9.82826415 12.72428331 10.367033 21.23130608 C10.56590724 26.56621127 10.52977745 31.90044504 10.50170898 37.23803711 C10.50549615 39.2906074 10.51099945 41.34317513 10.51808167 43.39573669 C10.5320025 48.94953443 10.52088964 54.50302119 10.50437045 60.05680156 C10.49048003 65.88125882 10.49698465 71.70569876 10.50050354 77.53016663 C10.50320272 87.31077053 10.48975588 97.09125152 10.46655273 106.87182617 C10.43995237 118.16218564 10.43819469 129.45233953 10.4499411 140.74271959 C10.46073984 151.62434438 10.45451486 162.50589518 10.44038582 173.38751411 C10.43464347 178.00885337 10.43469492 182.63013817 10.43945122 187.2514782 C10.44424176 192.69922287 10.43403346 198.14674398 10.41249657 203.59444618 C10.40695649 205.58778505 10.40643769 207.58114552 10.41144943 209.57448578 C10.44452677 224.62352488 9.72185895 237.80213415 -0.5234375 249.78125 C-7.04590131 256.01736174 -15.69324427 259.25705081 -24.625 259.5625 C-33.67360736 259.16250183 -40.36901592 256.14733722 -47.015625 250.07421875 C-49.92450009 248.49953243 -51.79952222 249.3294237 -55 250 C-67.87108947 250.77582654 -77.26303369 250.36827618 -87.375 241.5625 C-95.31812299 234.12390762 -100.21884594 226.93615689 -101 216 C-101.67804688 215.92523437 -102.35609375 215.85046875 -103.0546875 215.7734375 C-112.69244486 214.41187067 -120.65377686 210.40349901 -127.3359375 203.23046875 C-134.48621531 193.64641093 -137.81999635 183.18588005 -138.08203125 171.26953125 C-138.29989446 163.22473033 -139.11333825 158.68490327 -144.21484375 152.41015625 C-151.37883152 142.73798895 -152.00318861 129.56537065 -151 118 C-149.42928788 109.67971351 -146.27929455 100.10339599 -139.31640625 94.69140625 C-137.20150681 91.97404287 -137.83349581 89.42380337 -138 86.0625 C-138.38859676 70.71847931 -132.97027723 58.43319339 -122.5078125 47.296875 C-118.40519644 43.5393388 -113.85295437 40.69014164 -109 38 C-108.31550781 37.608125 -107.63101563 37.21625 -106.92578125 36.8125 C-105 36 -105 36 -101 36 C-100.773125 34.865625 -100.54625 33.73125 -100.3125 32.5625 C-97.67445486 22.17519725 -91.08997552 13.28769736 -82 7.6875 C-72.60006223 2.44632258 -62.66049409 -1.14493835 -51.875 1.875 C-48.44010696 2.02434318 -48.13018879 1.54278107 -45.6875 -0.6875 C-45.10613281 -1.24179687 -44.52476562 -1.79609375 -43.92578125 -2.3671875 C-30.88188172 -13.42672098 -12.34584799 -10.0472928 0 0 Z " fill="#3890EC" transform="translate(286,395)"/>
<path d="M0 0 C13.41715186 0.70496224 26.84071265 0.74675049 40.27270126 0.84575653 C44.98983957 0.88130835 49.70683847 0.92756729 54.42385864 0.97613525 C55.22709246 0.98436743 56.03032627 0.9925996 56.8579005 1.00108123 C58.49680487 1.01791163 60.13570892 1.03477238 61.77461267 1.05166292 C72.71782095 1.1641741 83.6609584 1.27030639 94.60449219 1.34570312 C102.04465417 1.3970429 109.48443129 1.46579091 116.92424309 1.55462289 C120.84331203 1.60073176 124.7620141 1.63809061 128.68133163 1.65398407 C132.35424624 1.66900379 136.02621336 1.70703131 139.69873428 1.76241302 C141.67687421 1.7862858 143.65526138 1.7858501 145.63354492 1.7845459 C154.21076838 1.94485156 159.58020183 3.43756516 165.58154297 9.65527344 C166.03658203 10.31269531 166.49162109 10.97011719 166.96044922 11.64746094 C167.43353516 12.31003906 167.90662109 12.97261719 168.39404297 13.65527344 C170.2442171 16.71542304 170.64884246 19.26129263 170.6571703 22.7551899 C170.66162814 23.62297825 170.66608598 24.4907666 170.67067891 25.38485157 C170.67040237 26.81580436 170.67040237 26.81580436 170.67012024 28.27566528 C170.67379693 29.288683 170.67747362 30.30170072 170.68126172 31.34541595 C170.69231689 34.75616127 170.69614552 38.16687615 170.69995117 41.57763672 C170.70621447 44.01664833 170.71286114 46.45565898 170.71986389 48.89466858 C170.73910493 56.22611621 170.7496946 63.55755575 170.75859168 70.88902122 C170.76297578 74.34267028 170.76834232 77.79631781 170.77358055 81.24996567 C170.79059344 92.7330576 170.80508674 104.21614858 170.81232929 115.69925117 C170.81423915 118.67905809 170.81615949 121.65886499 170.81811523 124.63867188 C170.81859897 125.37927765 170.81908271 126.11988343 170.81958111 126.88293181 C170.82787815 138.87534865 170.85320925 150.86766564 170.88569591 162.86003889 C170.91878721 175.17618448 170.93677997 187.49227938 170.93997353 199.80846965 C170.94213686 206.72197655 170.95085928 213.6353379 170.97643471 220.54880142 C171.00044577 227.05438936 171.00395434 233.55978659 170.99367332 240.06541252 C170.99317749 242.45145348 170.99951185 244.83750726 171.01322937 247.22350883 C171.03092949 250.48510435 171.02385048 253.74575837 171.01069641 257.00735474 C171.02166566 257.94793893 171.0326349 258.88852312 171.04393655 259.85760987 C170.97344659 267.1148136 169.2884678 273.22912967 164.55810547 278.86230469 C163.90712891 279.38953125 163.25615234 279.91675781 162.58544922 280.45996094 C161.93705078 281.00523437 161.28865234 281.55050781 160.62060547 282.11230469 C156.5390608 284.85613639 152.93943741 285.77202141 148.05297852 285.82543945 C146.95820694 285.84212677 145.86343536 285.85881409 144.73548889 285.87600708 C143.53484299 285.88437592 142.33419708 285.89274475 141.09716797 285.90136719 C139.81019516 285.9179538 138.52322235 285.93454041 137.19725037 285.95162964 C134.36682246 285.98789687 131.53641846 286.01787375 128.70587158 286.04318237 C124.15305718 286.08400953 119.60048985 286.1397079 115.04785156 286.1965332 C98.1665104 286.40169618 81.28462203 286.54371807 64.40260315 286.67951965 C56.734442 286.74147455 49.06633251 286.80912442 41.39822674 286.87755871 C34.9224689 286.93449321 28.44672972 286.98156983 21.97084522 287.02140808 C17.89258058 287.04835497 13.8144096 287.08322017 9.73622322 287.12002945 C7.82953399 287.13553443 5.92281401 287.14767673 4.01608086 287.15621567 C1.38816635 287.16840249 -1.23938836 287.19256582 -3.8671875 287.21948242 C-4.62627065 287.2200744 -5.38535379 287.22066637 -6.16743946 287.22127628 C-11.23558562 287.28990784 -15.5848063 288.19820139 -20.47705078 289.52246094 C-24.18798828 289.82324219 -24.18798828 289.82324219 -27.85205078 289.83496094 C-29.05603516 289.85171875 -30.26001953 289.86847656 -31.50048828 289.88574219 C-34.81401558 289.58303292 -37.0127872 289.07708715 -40.08883667 288.02182007 C-45.37856934 286.39795805 -50.16178858 286.11176424 -55.66503906 286.16943359 C-56.62900604 286.16727341 -57.59297302 286.16511322 -58.58615112 286.16288757 C-60.66057501 286.15982061 -62.73501738 286.16334672 -64.80942154 286.17290115 C-68.09750142 286.18673437 -71.38498424 286.18014694 -74.67306519 286.1680603 C-84.01483233 286.13722419 -93.35645582 286.14199771 -102.69824219 286.16210938 C-108.42873885 286.17304025 -114.15878348 286.15981393 -119.88921738 286.13221359 C-122.06523229 286.12678529 -124.24129277 286.13080546 -126.41727066 286.14461136 C-129.4612984 286.16371071 -132.50384836 286.15223093 -135.54785156 286.13427734 C-136.43845276 286.14761612 -137.32905396 286.1609549 -138.24664307 286.17469788 C-145.53551532 286.07943367 -150.09114389 283.49003184 -155.50048828 278.74902344 C-156.16951172 277.95625 -156.16951172 277.95625 -156.85205078 277.14746094 C-157.31353516 276.62410156 -157.77501953 276.10074219 -158.25048828 275.56152344 C-161.86689743 269.54953116 -161.76689889 263.11825884 -161.74447632 256.31947327 C-161.74900743 255.30641583 -161.75353854 254.2933584 -161.75820696 253.24960226 C-161.77084432 249.86272528 -161.76923101 246.47600924 -161.76757812 243.08911133 C-161.77356369 240.65773818 -161.7803693 238.22636692 -161.78793335 235.79499817 C-161.80376173 229.88100579 -161.81004148 223.967051 -161.81115811 218.05304176 C-161.8121098 213.24491899 -161.81622616 208.43680934 -161.82255936 203.62869072 C-161.84016173 189.98685936 -161.84939953 176.34505942 -161.84789841 162.70321662 C-161.8478185 161.96850133 -161.84773858 161.23378603 -161.84765625 160.47680664 C-161.84757449 159.74119117 -161.84749273 159.0055757 -161.84740849 158.24766885 C-161.84659536 146.32272284 -161.86574226 134.39790306 -161.89393298 122.47299356 C-161.92267275 110.21886985 -161.93647275 97.9648077 -161.93474543 85.71064943 C-161.93408202 78.83468981 -161.93955325 71.95886263 -161.96110153 65.08293343 C-161.98123424 58.61750095 -161.98062852 52.15227589 -161.96606827 45.68682671 C-161.96397554 43.31488003 -161.96870853 40.94291598 -161.98078918 38.57099915 C-161.99622101 35.33114742 -161.98694631 32.09226309 -161.9715271 28.85243225 C-161.98695779 27.44711584 -161.98695779 27.44711584 -162.00270021 26.0134092 C-161.92830517 18.93194859 -160.21647855 13.64856738 -155.51220703 8.28027344 C-154.86123047 7.74144531 -154.21025391 7.20261719 -153.53955078 6.64746094 C-152.89115234 6.09316406 -152.24275391 5.53886719 -151.57470703 4.96777344 C-146.0296759 1.14717471 -140.8245594 1.18988508 -134.30029297 1.11181641 C-133.27658096 1.09201721 -132.25286896 1.07221802 -131.19813538 1.05181885 C-127.80682604 0.98858275 -124.41546339 0.93899801 -121.02392578 0.88964844 C-118.64714229 0.84843632 -116.27037225 0.80644165 -113.89361572 0.76370239 C-108.89692747 0.67575249 -103.90019125 0.59395439 -98.90332031 0.51708984 C-92.57098959 0.41967711 -86.23888033 0.31245841 -79.90678024 0.20113945 C-73.80004915 0.09408615 -67.69324566 -0.00850637 -61.58642578 -0.11035156 C-59.8872916 -0.13902502 -59.8872916 -0.13902502 -58.15383148 -0.16827774 C-16.36886457 -0.86135907 -16.36886457 -0.86135907 0 0 Z M-47.46923828 17.12011719 C-49.45710787 18.50853194 -51.2067877 19.66332216 -53.47705078 20.52246094 C-55.46533203 20.15917969 -55.46533203 20.15917969 -57.47705078 19.52246094 C-70.24691499 18.47254858 -80.88519301 22.77714922 -90.78955078 30.77246094 C-97.14600858 36.67302524 -100.85497493 44.36489163 -103.47705078 52.52246094 C-103.47705078 53.18246094 -103.47705078 53.84246094 -103.47705078 54.52246094 C-104.78029297 54.67521484 -104.78029297 54.67521484 -106.10986328 54.83105469 C-116.77728563 57.02146508 -125.69665368 64.92364498 -131.63720703 73.72167969 C-137.79594335 83.61273195 -140.73705345 92.55399044 -140.22705078 104.27246094 C-140.07354022 110.85339214 -140.07354022 110.85339214 -141.84814453 113.79589844 C-143.06433842 115.03563157 -144.31282184 116.24444889 -145.59033203 117.42089844 C-149.3441354 121.60215354 -150.7874554 127.24422082 -152.47705078 132.52246094 C-152.68072266 133.15667969 -152.88439453 133.79089844 -153.09423828 134.44433594 C-155.52094713 147.61789825 -153.16269383 161.13864368 -145.97705078 172.36621094 C-144.53365885 174.51748059 -144.53365885 174.51748059 -142.92016602 176.3425293 C-141.21180233 178.92313822 -141.03717661 180.48706794 -140.88720703 183.55761719 C-140.82758789 184.52683105 -140.76796875 185.49604492 -140.70654297 186.49462891 C-140.65143555 187.51443848 -140.59632813 188.53424805 -140.53955078 189.58496094 C-139.4914968 204.23276306 -136.09412425 215.51470167 -125.16455078 225.83496094 C-118.52220365 231.42968956 -112.08124126 233.89670163 -103.47705078 234.52246094 C-103.43580078 235.61558594 -103.39455078 236.70871094 -103.35205078 237.83496094 C-102.03459231 247.91173787 -95.22273595 256.36055804 -87.47705078 262.52246094 C-80.36604225 266.83028929 -74.47311494 268.68981556 -66.16455078 268.64746094 C-65.41753906 268.65132812 -64.67052734 268.65519531 -63.90087891 268.65917969 C-60.50645265 268.65321933 -57.51150324 268.52949786 -54.16845703 267.84667969 C-51.47705078 267.52246094 -51.47705078 267.52246094 -49.49267578 268.59667969 C-48.91001953 269.1290625 -48.32736328 269.66144531 -47.72705078 270.20996094 C-40.42080564 276.13506333 -33.19663442 278.30031725 -23.78564453 277.96777344 C-14.71170106 276.74648707 -6.39889005 272.55464507 -0.47705078 265.52246094 C5.73860737 256.36546455 7.83354606 247.4639378 7.79037476 236.53504944 C7.79717143 235.2477792 7.79717143 235.2477792 7.8041054 233.9345035 C7.81667851 231.0836396 7.81513366 228.23296848 7.81347656 225.38208008 C7.81946612 223.32803606 7.82627264 221.27399429 7.83383179 219.21995544 C7.85145233 213.65799875 7.85618542 208.09610366 7.85746336 202.53412175 C7.85888739 199.05598454 7.86316169 195.57786288 7.86845779 192.09972954 C7.88694276 179.95685714 7.89513005 167.81402858 7.89355469 155.67114258 C7.89235268 144.36542908 7.9134707 133.05990629 7.94504201 121.75424105 C7.97121489 112.03422941 7.9819216 102.31428005 7.98064387 92.59423345 C7.98013468 86.79469331 7.98579497 80.99532288 8.00699997 75.19581795 C8.02640006 69.74150561 8.02649452 64.28752465 8.01196671 58.83320045 C8.00987995 56.83620468 8.01457148 54.83918805 8.02668762 52.84222794 C8.10300149 39.38891822 7.63997243 28.83250051 -2.05908203 18.56933594 C-9.55335043 12.22523797 -18.29239204 9.15020292 -28.02001953 9.31152344 C-35.53647509 9.95681533 -41.41976745 12.73369277 -47.46923828 17.12011719 Z M9.52294922 17.52246094 C9.90966797 18.16570312 10.29638672 18.80894531 10.69482422 19.47167969 C11.21560547 20.3753125 11.73638672 21.27894531 12.27294922 22.20996094 C12.78341797 23.08007812 13.29388672 23.95019531 13.81982422 24.84667969 C18.87201061 34.9650814 20.10358762 44.95687485 19.99291992 56.1262207 C19.99343041 57.54128683 19.99569691 58.95635323 19.9995575 60.37141418 C20.00493667 64.18825754 19.98563903 68.0046073 19.96145654 71.82136273 C19.93984908 75.88357157 19.94074024 79.94578422 19.93876648 84.00804138 C19.93232763 90.86815585 19.91117112 97.72809164 19.87963867 104.58813477 C19.83611782 114.06479128 19.82002027 123.541341 19.80928636 133.01808286 C19.78437729 153.1867297 19.68378498 173.35445486 19.52294922 193.52246094 C19.51478007 194.57576111 19.51478007 194.57576111 19.50644588 195.65034008 C19.44239697 203.86353786 19.35953382 212.07619522 19.23811913 220.28877068 C19.20723916 222.46309505 19.18069806 224.63748647 19.15902138 226.81192207 C19.0194327 240.01431941 18.81277564 252.71875874 12.83544922 264.83496094 C12.39845703 265.73859375 11.96146484 266.64222656 11.51123047 267.57324219 C11.02203125 268.53810547 11.02203125 268.53810547 10.52294922 269.52246094 C24.43680794 280.87324042 54.17626871 273.7116667 71.52197266 272.55102539 C75.77330606 272.26658417 80.0252938 271.99382508 84.27759171 271.72424126 C99.89774747 270.73035141 115.50882156 269.66907446 131.07763672 268.04199219 C132.16569611 267.93449142 133.25375549 267.82699066 134.37478638 267.7162323 C140.82140571 266.99315419 145.79900153 266.12425841 150.64962006 261.49115658 C153.25012879 257.37008747 153.07999517 254.0858933 153.03088379 249.30580139 C153.03712375 248.37471272 153.04336371 247.44362406 153.04979277 246.48432058 C153.06575423 243.36274364 153.05310589 240.24194414 153.04052734 237.12036133 C153.04594708 234.88307743 153.0530689 232.64579711 153.06176758 230.40852356 C153.08002237 224.33000944 153.07292406 218.25176651 153.06025124 212.17324758 C153.05013357 205.81523351 153.05951361 199.45724287 153.0657959 193.09922791 C153.07354295 181.73604304 153.0611005 170.372996 153.04075855 159.00983869 C153.02289193 148.71068086 153.02598813 138.4117034 153.04443359 128.11254883 C153.06584924 116.14938931 153.07380233 104.18633935 153.06198454 92.22315401 C153.05574622 85.89162041 153.0549233 79.56021101 153.06813049 73.22868538 C153.07968085 67.27538748 153.07167768 61.32243031 153.04855347 55.36916924 C153.04326185 53.18345073 153.04478785 50.99770359 153.05360413 48.81199646 C153.06452508 45.82964452 153.05083699 42.84838627 153.03088379 39.86610413 C153.03980668 38.99985556 153.04872956 38.133607 153.05792284 37.24110848 C152.98809131 31.86481184 152.09041415 28.79553695 148.52294922 24.52246094 C143.34851769 21.03348436 136.5023464 20.88107629 130.46044922 20.45996094 C128.74037744 20.3234902 127.02032671 20.18675405 125.30029297 20.04980469 C123.78133423 19.93523926 123.78133423 19.93523926 122.23168945 19.81835938 C119.40350579 19.59271534 116.57905375 19.35048765 113.75366211 19.09375 C98.57645093 17.719377 83.38456929 16.6424322 68.17749023 15.66259766 C65.43668346 15.48581369 62.69615739 15.30535666 59.95581055 15.12158203 C33.82434596 11.40256861 33.82434596 11.40256861 9.52294922 17.52246094 Z " fill="#F9F9FA" transform="translate(288.47705078125,376.4775390625)"/>
<path d="M0 0 C6.28016217 5.70669524 9.82826415 12.72428331 10.367033 21.23130608 C10.56590724 26.56621127 10.52977745 31.90044504 10.50170898 37.23803711 C10.50549615 39.2906074 10.51099945 41.34317513 10.51808167 43.39573669 C10.5320025 48.94953443 10.52088964 54.50302119 10.50437045 60.05680156 C10.49048003 65.88125882 10.49698465 71.70569876 10.50050354 77.53016663 C10.50320272 87.31077053 10.48975588 97.09125152 10.46655273 106.87182617 C10.43995237 118.16218564 10.43819469 129.45233953 10.4499411 140.74271959 C10.46073984 151.62434438 10.45451486 162.50589518 10.44038582 173.38751411 C10.43464347 178.00885337 10.43469492 182.63013817 10.43945122 187.2514782 C10.44424176 192.69922287 10.43403346 198.14674398 10.41249657 203.59444618 C10.40695649 205.58778505 10.40643769 207.58114552 10.41144943 209.57448578 C10.44452677 224.62352488 9.72185895 237.80213415 -0.5234375 249.78125 C-7.04590131 256.01736174 -15.69324427 259.25705081 -24.625 259.5625 C-33.67360736 259.16250183 -40.36901592 256.14733722 -47.015625 250.07421875 C-49.92450009 248.49953243 -51.79952222 249.3294237 -55 250 C-67.87108947 250.77582654 -77.26303369 250.36827618 -87.375 241.5625 C-95.31812299 234.12390762 -100.21884594 226.93615689 -101 216 C-101.67804688 215.92523437 -102.35609375 215.85046875 -103.0546875 215.7734375 C-112.69244486 214.41187067 -120.65377686 210.40349901 -127.3359375 203.23046875 C-134.48621531 193.64641093 -137.81999635 183.18588005 -138.08203125 171.26953125 C-138.29989446 163.22473033 -139.11333825 158.68490327 -144.21484375 152.41015625 C-151.37883152 142.73798895 -152.00318861 129.56537065 -151 118 C-149.42928788 109.67971351 -146.27929455 100.10339599 -139.31640625 94.69140625 C-137.20150681 91.97404287 -137.83349581 89.42380337 -138 86.0625 C-138.38859676 70.71847931 -132.97027723 58.43319339 -122.5078125 47.296875 C-118.40519644 43.5393388 -113.85295437 40.69014164 -109 38 C-108.31550781 37.608125 -107.63101563 37.21625 -106.92578125 36.8125 C-105 36 -105 36 -101 36 C-100.773125 34.865625 -100.54625 33.73125 -100.3125 32.5625 C-97.67445486 22.17519725 -91.08997552 13.28769736 -82 7.6875 C-72.60006223 2.44632258 -62.66049409 -1.14493835 -51.875 1.875 C-48.44010696 2.02434318 -48.13018879 1.54278107 -45.6875 -0.6875 C-45.10613281 -1.24179687 -44.52476562 -1.79609375 -43.92578125 -2.3671875 C-30.88188172 -13.42672098 -12.34584799 -10.0472928 0 0 Z M-40 13 C-41.5537536 15.29034789 -42.8414754 17.54762558 -44.02734375 20.046875 C-45 22 -45 22 -47 24 C-51.05261287 24.34490322 -52.54754176 24.30163882 -56 22 C-56.6875 18.875 -56.6875 18.875 -57 16 C-65.58779285 15.37543325 -71.63938686 17.83970233 -78.3125 23.25 C-82.89803961 27.51583068 -85.04519613 31.96538423 -86.8984375 37.85546875 C-87.03940761 42.2201202 -85.01143781 44.21592582 -82.1875 47.25 C-81.68992188 47.81138672 -81.19234375 48.37277344 -80.6796875 48.95117188 C-76.67408605 53.41817805 -72.44749612 57.65367251 -68.09375 61.78125 C-65.03536923 65.02222066 -63.16001936 67.66650536 -62.625 72.125 C-63 75 -63 75 -64.125 76.8125 C-66.89381209 78.56608099 -68.70546598 79 -72 79 C-78.44746561 74.93529342 -82.7567884 68.23455526 -87.33544922 62.25634766 C-88.74610942 60.42576092 -90.18325912 58.61866389 -91.625 56.8125 C-92.06803467 56.22339844 -92.51106934 55.63429688 -92.9675293 55.02734375 C-94.40592475 53.15771114 -94.40592475 53.15771114 -97 51 C-103.69516061 50.94067579 -108.14634183 55.19870254 -112.703125 59.671875 C-119.95778079 67.6593243 -122.17953526 75.40741967 -122 86 C-121.05125 86.28875 -120.1025 86.5775 -119.125 86.875 C-116 88 -116 88 -114 90 C-113.75 93.3125 -113.75 93.3125 -115 97 C-117.36229274 98.48204677 -119.80196341 99.51496896 -122.35546875 100.6328125 C-127.66779996 103.37921711 -131.38238511 108.14135627 -133.9375 113.5 C-136.92399291 122.88612057 -135.95254511 135.09770804 -132 144 C-131.34 144.99 -130.68 145.98 -130 147 C-129.34 147 -128.68 147 -128 147 C-127.443125 146.030625 -126.88625 145.06125 -126.3125 144.0625 C-124 141 -124 141 -120.5 139.9375 C-117 140 -117 140 -114.5625 141 C-113 143 -113 143 -112.375 146.1875 C-113.0990823 150.60440201 -114.54196684 152.57864275 -117.39453125 155.91015625 C-122.94930698 163.14082539 -122.9260886 170.19774837 -122 179 C-119.79694405 187.518483 -115.73429492 194.43444482 -108.171875 199.13671875 C-103.27275138 201.08403227 -98.11144289 201.0270937 -93 200 C-90.27543306 197.89632388 -88.23311816 195.62640285 -86 193.015625 C-84 191 -84 191 -80.125 190.25 C-77 191 -77 191 -75.0625 192.125 C-73.36737734 195.11639292 -73.35592811 196.58641899 -74 200 C-76.83082621 204.04403744 -80.25763193 207.36589394 -84 210.5625 C-86.3306288 212.90197852 -86.3306288 212.90197852 -86.125 216.3125 C-83.64490525 224.44169946 -79.26576473 229.6071004 -72 234 C-68.91493912 235.02835363 -66.7305728 235.13368434 -63.5 235.125 C-62.5409375 235.12757813 -61.581875 235.13015625 -60.59375 235.1328125 C-57.88428848 235.10992972 -57.88428848 235.10992972 -55 234 C-53.96514123 231.68191636 -52.9644586 229.34824702 -52 227 C-48.98675805 225.49337903 -46.31713623 225.82229627 -43 226 C-41 228 -41 228 -40.6875 231.8125 C-40.33367909 235.17989901 -40.01013285 235.98697205 -37.8125 238.8125 C-32.73530476 242.76142963 -28.73609337 244.59668375 -22.3046875 244.34765625 C-16.9746547 243.54363435 -12.71784786 241.11705317 -9.125 237.125 C-4.60763429 230.48181513 -4.72083694 224.35111567 -4.77294922 216.57861328 C-4.77265717 215.43656937 -4.77236511 214.29452545 -4.77206421 213.11787415 C-4.77345491 209.35194235 -4.78900418 205.58620964 -4.8046875 201.8203125 C-4.80841855 199.20572009 -4.81126509 196.59112629 -4.81326294 193.97653198 C-4.81946888 187.80369454 -4.83586764 181.63092829 -4.85596192 175.45812213 C-4.87834856 168.42789705 -4.88932129 161.3976685 -4.89935279 154.36741662 C-4.9202347 139.91157443 -4.95539338 125.45578821 -5 111 C-6.57971938 111.75831834 -8.15584227 112.52413101 -9.73046875 113.29296875 C-10.60856201 113.71860107 -11.48665527 114.1442334 -12.39135742 114.58276367 C-20.27550607 118.86610321 -26.15396479 125.46189438 -29 134 C-29.07422725 135.95052721 -29.14519423 137.90132408 -29.18847656 139.8527832 C-29.44056234 149.16295111 -30.63692623 155.63692623 -37.4375 162.4375 C-43.436267 166.09528476 -49.32993329 166.32909582 -56.16601562 166.21484375 C-58.99802076 166.2847698 -61.2972504 166.37086733 -63.46826172 168.31445312 C-64.68534735 169.84546034 -65.84452067 171.4219797 -67 173 C-71.09337766 175.72107672 -75.24490921 175.50445311 -80 175 C-84.27550972 173.70928008 -86.22859548 172.11918955 -88.375 168.3125 C-90.74471258 162.90876211 -90.86653168 158.45517308 -88.875 152.8125 C-86.65494457 149.48241685 -84.61663629 146.77434139 -81 145 C-76.01501728 144.06784876 -72.19586048 144.42421532 -67.625 146.625 C-65 149 -65 149 -63.375 152.25 C-61.29461781 155.23216726 -61.29461781 155.23216726 -58.296875 155.5234375 C-53.68894433 155.67098208 -49.3911966 155.73527017 -45.375 153.25 C-42.00616576 150.05847282 -41.06170755 148.26141723 -40.83203125 143.56640625 C-40.82993652 142.92380859 -40.8278418 142.28121094 -40.82568359 141.61914062 C-40.74983644 129.78698433 -36.08438541 120.37726793 -27.9296875 111.76953125 C-22.40455352 106.70296103 -16.61496905 103.10336791 -9.66796875 100.29296875 C-8.06924927 99.64171021 -8.06924927 99.64171021 -6.43823242 98.97729492 C-5.63361572 98.6547876 -4.82899902 98.33228027 -4 98 C-3.88390761 87.96835369 -3.79518419 77.93686843 -3.74093914 67.90468597 C-3.71489781 63.24578543 -3.67960038 58.58734609 -3.62280273 53.92871094 C-3.56828693 49.42883298 -3.5385384 44.9293973 -3.52561378 40.42921448 C-3.51640887 38.71644635 -3.49843363 37.00370115 -3.47134972 35.29112244 C-2.99139141 23.67090102 -2.99139141 23.67090102 -7.66096497 13.36071777 C-12.72100926 8.21873714 -15.91381283 6.79864282 -23.0625 6.5625 C-30.12703339 6.51618899 -35.07792478 7.7362623 -40 13 Z " fill="#012F68" transform="translate(286,395)"/>
<path d="M0 0 C0.73367798 -0.00335861 1.46735596 -0.00671722 2.2232666 -0.01017761 C4.65032644 -0.0196817 7.07731724 -0.02163049 9.50439453 -0.02270508 C11.19206775 -0.02591819 12.8797407 -0.0292823 14.56741333 -0.03279114 C18.10647223 -0.03878116 21.6455067 -0.04063118 25.18457031 -0.04003906 C29.71627089 -0.03993748 34.24781465 -0.05358597 38.77947807 -0.07081127 C42.2659273 -0.08193818 45.7523387 -0.08395805 49.23880386 -0.08342934 C50.90932887 -0.08460855 52.57985488 -0.08902706 54.2503624 -0.0967617 C56.58889446 -0.10657494 58.92708731 -0.1036783 61.265625 -0.09765625 C61.95359161 -0.10327576 62.64155823 -0.10889526 63.35037231 -0.11468506 C67.2480701 -0.0892201 70.31546819 0.27151434 73.76220703 2.14526367 C76.20943841 5.81611075 76.06478216 8.59468596 76.06860352 12.84204102 C76.07692703 13.62448685 76.08525055 14.40693268 76.09382629 15.21308899 C76.11794312 17.80251018 76.12670038 20.39167955 76.13330078 22.98120117 C76.14226584 24.78097612 76.15138766 26.58075029 76.16065979 28.38052368 C76.1771569 32.15498669 76.18485121 35.92936093 76.18774414 39.70385742 C76.19312875 44.53852118 76.23080851 49.37234971 76.2764883 54.20677757 C76.30624307 57.92486613 76.31346735 61.64275319 76.31447029 65.36095047 C76.31867576 67.14315237 76.33112318 68.9253547 76.35198784 70.70743942 C76.37887054 73.20214852 76.37408732 75.69491688 76.36157227 78.18969727 C76.37640656 78.92441757 76.39124084 79.65913788 76.40652466 80.41612244 C76.35363908 84.12152223 75.83486102 86.04088228 73.70277405 89.10403442 C70.09892789 91.6056867 67.35203123 91.8404 63.11376953 91.76049805 C61.98355377 91.76882156 61.98355377 91.76882156 60.83050537 91.77731323 C58.3487516 91.78908961 55.86883209 91.76485714 53.38720703 91.73901367 C51.65755293 91.73730193 49.92789623 91.73736889 48.19824219 91.73913574 C44.57673251 91.73748365 40.95584271 91.71880657 37.33447266 91.68725586 C32.69729526 91.64757839 28.06092944 91.64321126 23.4236145 91.65071869 C19.85303338 91.65379132 16.28263399 91.64165746 12.71209717 91.62458801 C11.00251404 91.61756724 9.29291032 91.61443236 7.58331299 91.61528015 C5.19204638 91.61347813 2.80174394 91.59206296 0.41064453 91.56518555 C-0.29288147 91.56811615 -0.99640747 91.57104675 -1.72125244 91.57406616 C-6.0549437 91.49908121 -8.79728248 90.80741441 -12.23779297 88.14526367 C-14.65925076 84.51307698 -14.53360531 81.83074663 -14.52832031 77.63208008 C-14.53503754 76.86914139 -14.54175476 76.1062027 -14.54867554 75.32014465 C-14.56768787 72.79563907 -14.5715814 70.27139891 -14.57373047 67.74682617 C-14.5801564 65.99189138 -14.58688461 64.23695767 -14.59390259 62.48202515 C-14.60588361 58.8017122 -14.60958259 55.12149318 -14.60839844 51.44116211 C-14.60819526 46.72767508 -14.63549253 42.01479105 -14.66994286 37.30144691 C-14.69219314 33.67600749 -14.69623655 30.05071358 -14.69517899 26.42521286 C-14.69753796 24.68768613 -14.70637816 22.95015557 -14.72184372 21.21269608 C-14.74146544 18.78044827 -14.73568142 16.34950567 -14.72363281 13.91723633 C-14.73487183 13.2012175 -14.74611084 12.48519867 -14.75769043 11.7474823 C-14.71315673 8.20528924 -14.30086588 6.2453132 -12.39492798 3.22201538 C-8.67194371 -0.36223591 -4.87080836 -0.00318979 0 0 Z " fill="#F9F9F9" transform="translate(346.23779296875,430.854736328125)"/>
<path d="M0 0 C7.92 0 15.84 0 24 0 C26.5287144 5.68960739 28.97873299 11.32950365 31.22265625 17.125 C31.52090805 17.89009384 31.81915985 18.65518768 32.12644958 19.44346619 C33.10733562 21.96146003 34.08505216 24.48066971 35.0625 27 C35.75378338 28.77812395 36.44519245 30.55619903 37.13671875 32.33422852 C38.62374378 36.1587204 40.10929879 39.98377997 41.59423828 43.80908203 C43.70370023 49.24089482 45.82070132 54.66974342 47.9393158 60.09799194 C49.698675 64.60721139 51.45508523 69.11757593 53.21090698 73.62817383 C54.07027667 75.8343254 54.9307301 78.04005513 55.79226685 80.24536133 C57.00010564 83.33812926 58.20369086 86.43251984 59.40625 89.52734375 C59.77108994 90.45876694 60.13592987 91.39019012 60.51182556 92.34983826 C60.84114578 93.19981888 61.170466 94.0497995 61.50976562 94.92553711 C61.79903931 95.66791122 62.08831299 96.41028534 62.38635254 97.17515564 C63 99 63 99 63 101 C55.41 101 47.82 101 40 101 C37.0600324 94.19165397 34.81343508 88.25374032 33 81 C19.47 81.33 5.94 81.66 -8 82 C-10.31 88.27 -12.62 94.54 -15 101 C-22.59 101 -30.18 101 -38 101 C-36.18941282 94.96470941 -34.41221509 89.15285604 -32.12890625 83.3203125 C-31.85421509 82.60922836 -31.57952393 81.89814423 -31.29650879 81.16551208 C-30.38858395 78.81733781 -29.4755089 76.47120162 -28.5625 74.125 C-27.91617259 72.45580753 -27.2702693 70.78645078 -26.62475586 69.11694336 C-25.57926312 66.41338841 -24.53337559 63.70999046 -23.48609924 61.00712585 C-19.11174842 49.71731028 -14.77082218 38.41464667 -10.42721558 27.11297607 C-8.23497415 21.40958932 -6.041258 15.70676991 -3.84765625 10.00390625 C-2.57792969 6.70261719 -1.30820312 3.40132813 0 0 Z " fill="#041221" transform="translate(573,340)"/>
<path d="M0 0 C5.11539619 -0.080588 10.23057805 -0.14028003 15.34643555 -0.18206787 C17.24478497 -0.20024804 19.14308374 -0.22496325 21.04125977 -0.25640869 C23.67782978 -0.29794466 26.31334089 -0.31372325 28.95019531 -0.32275391 C30.09988297 -0.34894051 30.09988297 -0.34894051 31.27279663 -0.37565613 C36.45636011 -0.35479738 39.4443993 0.6745649 43.33300781 4.10302734 C46.33300781 10.10302734 46.33300781 10.10302734 46.33300781 39.10302734 C9.04300781 39.10302734 -28.24699219 39.10302734 -66.66699219 39.10302734 C-66.66699219 9.10302734 -66.66699219 9.10302734 -62.66699219 3.10302734 C-59.83500923 1.15198565 -57.53694961 0.84208273 -54.13769531 0.78417969 C-53.23739594 0.76433517 -52.33709656 0.74449066 -51.40951538 0.7240448 C-49.94368515 0.70668022 -49.94368515 0.70668022 -48.44824219 0.68896484 C-47.41792877 0.6693721 -46.38761536 0.64977936 -45.32608032 0.6295929 C-41.9397996 0.56849247 -38.5535324 0.52227548 -35.16699219 0.47802734 C-32.82828501 0.44280917 -30.48958059 0.4074071 -28.15087891 0.37182617 C-22.16055549 0.2847096 -16.17013363 0.21377552 -10.17956543 0.14593506 C-6.78622679 0.10448385 -3.39316002 0.05399269 0 0 Z " fill="#F8F8F9" transform="translate(303.6669921875,317.89697265625)"/>
<path d="M0 0 C4.29 0 8.58 0 13 0 C13.33 8.91 13.66 17.82 14 27 C15.65 25.68 17.3 24.36 19 23 C23.69397693 20.0836238 28.64459722 20.50623946 34 21 C38.6710377 22.19168001 42.64994167 24.56178224 46 28 C51.58881814 37.4567855 54.03149824 46.90712931 51.28125 57.86328125 C49.07135437 63.73554424 46.43537119 69.07137056 40.7734375 72.25 C34.50075764 75.04648885 28.35359357 76.60356114 21.73046875 74.1640625 C18.70285615 72.71299052 16.38442087 71.38442087 14 69 C13.67 70.65 13.34 72.3 13 74 C8.71 74 4.42 74 0 74 C0 49.58 0 25.16 0 0 Z " fill="#04101F" transform="translate(656,463)"/>
<path d="M0 0 C4.9492112 2.02467731 8.61845033 6.23690065 11 11 C11.53741554 17.23402021 10.70458612 21.84330759 7 27 C6.31848877 27.4031543 5.63697754 27.80630859 4.93481445 28.22167969 C2.70925022 29.88571405 2.70925022 29.88571405 2.62866211 32.81225586 C2.67772705 33.93510986 2.72679199 35.05796387 2.77734375 36.21484375 C2.8021582 37.45355225 2.82697266 38.69226074 2.85253906 39.96850586 C2.88057617 41.27827393 2.90861328 42.58804199 2.9375 43.9375 C2.99348077 59.52506135 2.99348077 59.52506135 -1.75170898 65.03149414 C-4.04548086 67.18398432 -6.50476362 69.0876672 -9 71 C-9.88362917 72.00411659 -10.74178666 73.0311735 -11.57421875 74.078125 C-13.79146129 76.74881328 -15.67248115 78.44780958 -18.5625 80.3125 C-19.67818359 81.04919922 -19.67818359 81.04919922 -20.81640625 81.80078125 C-24.21522819 83.66739723 -27.2626548 84.12679807 -31.109375 84.09765625 C-31.86347656 84.09443359 -32.61757812 84.09121094 -33.39453125 84.08789062 C-34.17183594 84.07951172 -34.94914062 84.07113281 -35.75 84.0625 C-36.54277344 84.05798828 -37.33554688 84.05347656 -38.15234375 84.04882812 C-40.10159508 84.03708565 -42.05080738 84.01915146 -44 84 C-44.11859375 84.60328125 -44.2371875 85.2065625 -44.359375 85.828125 C-45.17967047 88.60912672 -46.58667443 90.23443703 -48.86328125 92.00390625 C-53.65966902 94.23988227 -58.89307705 93.90832087 -64 93 C-68.36970484 90.71983522 -71.16276135 87.56373437 -73 83 C-73.75517024 78.32375351 -73.93385668 73.88287336 -71.796875 69.57421875 C-69.27470674 66.09031461 -67.08952373 63.55042383 -63 62 C-57.65038492 61.3050349 -53.28121994 61.34815126 -48.4375 63.8125 C-46 66 -46 66 -44 69 C-37.85843685 70.61019188 -30.17399691 70.29340688 -24 69 C-19.59764742 66.33435532 -16.92898412 63.17990443 -14 59 C-13.27039063 58.29359375 -12.54078125 57.5871875 -11.7890625 56.859375 C-9.00461069 52.40911577 -9.34148664 48.0818001 -9.375 42.9375 C-9.32666016 41.44766602 -9.32666016 41.44766602 -9.27734375 39.92773438 C-9.27360182 37.14934988 -9.35320397 34.70311385 -10 32 C-12.75564405 29.4137376 -12.75564405 29.4137376 -16 28 C-19.67705217 23.16177346 -20.65385852 19.43380221 -20.38671875 13.36328125 C-19.59378358 8.51756632 -16.94230039 5.83012177 -13.375 2.6875 C-8.9349002 -0.46730775 -5.3423329 -0.50171474 0 0 Z " fill="#02326F" transform="translate(250,432)"/>
<path d="M0 0 C6.98601399 5.16414543 11.00689542 12.20892602 12.46484375 20.79296875 C12.88108007 28.54883887 10.10102692 36.3915325 5.33203125 42.4765625 C0.55158163 47.5360739 -5.7498528 50.17111015 -12.6171875 50.77734375 C-22.20229541 51.01540525 -29.27057543 48.84274108 -36.4140625 42.3125 C-41.75780803 36.01104424 -43.56787013 27.59783965 -42.91796875 19.5390625 C-40.80224565 11.01244352 -37.21142319 4.32930473 -29.9921875 -0.83984375 C-20.89641088 -5.7560168 -8.79257013 -5.22013284 0 0 Z " fill="#04101F" transform="translate(634.91796875,487.4609375)"/>
<path d="M0 0 C7.26 0 14.52 0 22 0 C22 33.66 22 67.32 22 102 C14.74 102 7.48 102 0 102 C0 68.34 0 34.68 0 0 Z " fill="#011020" transform="translate(649,339)"/>
<path d="M0 0 C3.5625 0.5625 3.5625 0.5625 6.5 2.625 C8.5625 5.5625 8.5625 5.5625 9.4375 8.75 C8.04329763 14.82473892 3.88831343 18.28939095 -0.4375 22.5625 C-1.66845165 23.79378825 -2.89888979 25.02559002 -4.12890625 26.2578125 C-6.10054041 28.22944666 -8.07407977 30.1989889 -10.0534668 32.1628418 C-13.79896016 35.88560363 -17.426417 39.64643134 -20.83984375 43.6796875 C-23.5394776 46.86116309 -26.36199649 49.93262688 -29.16015625 53.02734375 C-32.04467331 56.23840992 -34.88179817 59.49008637 -37.7109375 62.75 C-40.36118069 65.53215575 -42.20926617 66.51845488 -46 67.25 C-52.40043108 67.06346649 -56.18725088 61.8066512 -60.4375 57.5625 C-62.5232712 55.60472685 -64.63674098 53.6780058 -66.75 51.75 C-67.71550781 50.85667969 -68.68101562 49.96335937 -69.67578125 49.04296875 C-71.46350557 47.43730405 -73.29574334 45.8793334 -75.17578125 44.3828125 C-77.80980249 42.26285758 -79.12900174 40.68835696 -80.4375 37.5625 C-80.4375 33.19831445 -79.86593493 31.13782691 -77.25 27.625 C-74.4375 25.5625 -74.4375 25.5625 -71.625 24.8125 C-66.71796903 25.96709552 -64.00500874 29.14087452 -60.4375 32.5625 C-58.26898823 34.41276601 -56.08854377 36.24806514 -53.90625 38.08203125 C-52.4375 39.5625 -52.4375 39.5625 -52.4375 41.5625 C-50.4575 42.2225 -48.4775 42.8825 -46.4375 43.5625 C-43.91233195 41.06684749 -41.39320627 38.56517549 -38.875 36.0625 C-38.17052734 35.36640625 -37.46605469 34.6703125 -36.74023438 33.953125 C-33.34071221 30.56926884 -30.04130752 27.1606648 -26.921875 23.515625 C-23.30006828 19.31079068 -19.33404996 15.56292334 -15.25 11.8125 C-13.86015555 10.52660513 -12.47081692 9.24016329 -11.08203125 7.953125 C-10.44160889 7.36394287 -9.80118652 6.77476074 -9.14135742 6.16772461 C-7.76878501 4.8746076 -6.45580623 3.51839615 -5.1640625 2.14453125 C-3.4375 0.5625 -3.4375 0.5625 0 0 Z " fill="#F8F9FA" transform="translate(413.4375,550.4375)"/>
<path d="M0 0 C3.3 0 6.6 0 10 0 C10.33 1.32 10.66 2.64 11 4 C11.7425 3.34 12.485 2.68 13.25 2 C18.01149754 -1.17433169 23.52082853 -0.74510711 29 0 C34.15084913 2.48344512 37.55628701 6.07102831 40.0859375 11.203125 C42.26959645 17.8847481 42.32013277 27.23387502 39.3125 33.6875 C36.38789031 38.43484179 32.38448979 41.53150278 27 43 C19.88888957 43.88553451 17.75213657 42.85836375 11 39 C11 44.94 11 50.88 11 57 C7.37 57 3.74 57 0 57 C0 38.19 0 19.38 0 0 Z " fill="#06111F" transform="translate(594,573)"/>
<path d="M0 0 C6.07445068 3.20914376 9.86835302 7.47752462 12 14 C12.77314074 22.02807766 13.26499448 30.38456862 8 37 C3.64788503 41.24052228 -0.40529782 43.0801036 -6.4375 43.3125 C-10.58138489 43.23627469 -13.43524708 42.19369411 -17 40 C-17 39.34 -17 38.68 -17 38 C-17.66 38 -18.32 38 -19 38 C-19 44.27 -19 50.54 -19 57 C-22.3 57 -25.6 57 -29 57 C-29 38.19 -29 19.38 -29 0 C-25.7 0 -22.4 0 -19 0 C-18.67 1.32 -18.34 2.64 -18 4 C-17.071875 3.360625 -16.14375 2.72125 -15.1875 2.0625 C-9.86161684 -1.38365969 -6.0252389 -1.3309175 0 0 Z " fill="#040F1D" transform="translate(672,573)"/>
<path d="M0 0 C4.95 0 9.9 0 15 0 C15.5347998 1.42787842 16.06959961 2.85575684 16.62060547 4.3269043 C18.60670104 9.62919682 20.59352428 14.93121643 22.58056641 20.2331543 C23.4401398 22.52702528 24.29951637 24.82097002 25.15869141 27.11499023 C26.39433773 30.41409449 27.63069377 33.71293202 28.8671875 37.01171875 C29.25059296 38.03585373 29.63399841 39.05998871 30.02902222 40.11515808 C30.38924469 41.07577652 30.74946716 42.03639496 31.12060547 43.02612305 C31.43593231 43.86773483 31.75125916 44.70934662 32.07614136 45.57646179 C32.72253655 47.2721362 33.40629487 48.95382261 34.11746216 50.62336731 C35 53 35 53 35 56 C31.04 56 27.08 56 23 56 C21.02 50.555 21.02 50.555 19 45 C11.41 44.67 3.82 44.34 -4 44 C-4.99 47.3 -5.98 50.6 -7 54 C-7.33 54.66 -7.66 55.32 -8 56 C-11.96 56 -15.92 56 -20 56 C-17.93302378 48.86879068 -15.58451095 41.91525127 -12.98828125 34.9609375 C-12.61519333 33.95406891 -12.24210541 32.94720032 -11.85771179 31.90982056 C-10.67887341 28.73046222 -9.49576316 25.55271386 -8.3125 22.375 C-7.50687718 20.20453258 -6.70153594 18.03396062 -5.89648438 15.86328125 C-3.93424108 10.57430736 -1.96816803 5.28677184 0 0 Z " fill="#04101E" transform="translate(554,559)"/>
<path d="M0 0 C3.65302044 4.69674057 5.88430613 9.38694902 6.625 15.3125 C5.80775863 21.85043095 4.14969789 28.23200964 -0.8125 32.8125 C-7.22393689 37.05934168 -13.13462786 39.12067248 -20.8125 37.8125 C-27.09669745 36.02130359 -31.17661231 33.37326941 -34.8125 27.8125 C-37.84027094 21.9040563 -38.93528872 16.19788493 -37.2734375 9.70703125 C-34.71599869 2.21738903 -30.8372775 -1.73673211 -23.8125 -5.1875 C-14.82726033 -7.8830719 -7.21538251 -5.61196417 0 0 Z " fill="#06111F" transform="translate(905.8125,578.1875)"/>
<path d="M0 0 C5.28 0 10.56 0 16 0 C16.07436593 7.4015078 16.12870504 14.80279625 16.16479492 22.20458984 C16.17984619 24.72057892 16.20029181 27.23654192 16.22631836 29.75244141 C16.26286182 33.37669325 16.27976353 37.000597 16.29296875 40.625 C16.30845261 41.74302002 16.32393646 42.86104004 16.33988953 44.01293945 C16.34181356 53.01773575 14.84355984 59.75306864 8.609375 66.52734375 C2.78964332 71.85268074 -4.55583041 72.36250453 -12.08203125 72.28125 C-18.20280104 71.69129629 -23.18393047 69.46831154 -27.9375 65.625 C-31.9973991 60.4578557 -33 57.72441154 -33 51 C-28.05 51 -23.1 51 -18 51 C-17.566875 52.134375 -17.13375 53.26875 -16.6875 54.4375 C-16.130625 55.613125 -15.57375 56.78875 -15 58 C-11.40735548 59.19754817 -8.77282526 59.33094958 -5 59 C-2.33472208 56.95939775 -1.15220018 55.75341148 -0.48101807 52.43096924 C-0.4676944 50.97868927 -0.4676944 50.97868927 -0.45410156 49.49707031 C-0.43438293 48.39623108 -0.41466431 47.29539185 -0.39434814 46.16119385 C-0.39311951 44.97878113 -0.39189087 43.79636841 -0.390625 42.578125 C-0.37408875 41.36300232 -0.35755249 40.14787964 -0.34051514 38.89593506 C-0.29192037 35.01390587 -0.2706376 31.13226877 -0.25 27.25 C-0.2218501 24.61846974 -0.19192407 21.98695783 -0.16015625 19.35546875 C-0.08615759 12.90367809 -0.03665252 6.45210656 0 0 Z " fill="#031121" transform="translate(568,466)"/>
<path d="M0 0 C4.12496464 2.88092768 6.1814365 6.52037878 7.72265625 11.203125 C7.94970703 14.43286133 7.94970703 14.43286133 7.91796875 18.03515625 C7.91152344 19.32744141 7.90507813 20.61972656 7.8984375 21.95117188 C7.88172952 23.3059923 7.86479967 24.66081001 7.84765625 26.015625 C7.83761628 27.38996751 7.82849221 28.76431703 7.8203125 30.13867188 C7.79676867 33.49366817 7.76388192 36.84830699 7.72265625 40.203125 C4.09265625 40.203125 0.46265625 40.203125 -3.27734375 40.203125 C-3.60734375 39.213125 -3.93734375 38.223125 -4.27734375 37.203125 C-4.85484375 37.6775 -5.43234375 38.151875 -6.02734375 38.640625 C-10.28397468 41.5966187 -15.18633412 42.03018433 -20.27734375 41.203125 C-23.99895873 39.57083773 -27.29257644 37.77429096 -29.484375 34.27734375 C-31.18191676 29.83697591 -30.91132454 25.62958177 -29.02734375 21.390625 C-25.67465778 17.19976754 -22.41888595 15.63502336 -17.27734375 14.203125 C-13.62890625 14.0078125 -13.62890625 14.0078125 -9.90234375 14.078125 C-8.65710938 14.09617187 -7.411875 14.11421875 -6.12890625 14.1328125 C-5.18789063 14.15601563 -4.246875 14.17921875 -3.27734375 14.203125 C-4.26734375 11.893125 -5.25734375 9.583125 -6.27734375 7.203125 C-9.90734375 7.203125 -13.53734375 7.203125 -17.27734375 7.203125 C-17.60734375 8.523125 -17.93734375 9.843125 -18.27734375 11.203125 C-21.90734375 11.203125 -25.53734375 11.203125 -29.27734375 11.203125 C-28.10474611 5.22287704 -26.5215135 2.73285464 -21.27734375 -0.796875 C-14.10098478 -4.14584252 -6.84857712 -3.86679106 0 0 Z " fill="#06111F" transform="translate(803.27734375,574.796875)"/>
<path d="M0 0 C4.35940007 2.51916152 6.96102547 5.5080764 8.5625 10.3125 C8.64628628 12.5963517 8.66979915 14.882601 8.66015625 17.16796875 C8.6587413 17.82960526 8.65732635 18.49124176 8.65586853 19.17292786 C8.65027996 21.28199828 8.63772965 23.39096177 8.625 25.5 C8.61998352 26.93163909 8.61542087 28.36327985 8.61132812 29.79492188 C8.6003143 33.30081588 8.58305755 36.8066475 8.5625 40.3125 C5.2625 40.3125 1.9625 40.3125 -1.4375 40.3125 C-1.7675 39.3225 -2.0975 38.3325 -2.4375 37.3125 C-3.015 37.786875 -3.5925 38.26125 -4.1875 38.75 C-8.52659528 41.76326061 -13.25404039 41.86286733 -18.4375 41.3125 C-23.0733881 39.61861781 -25.99162525 37.63981687 -28.4375 33.3125 C-29.28171505 28.65208835 -28.86544047 25.23685142 -26.875 20.9375 C-22.64186198 16.37873598 -17.50357225 14.91910723 -11.4375 14.3125 C-8.43523012 14.24336879 -5.4398115 14.25245377 -2.4375 14.3125 C-3.03933749 12.29204558 -3.71056096 10.29138961 -4.4375 8.3125 C-7.56610495 6.74819752 -9.99352925 6.95622716 -13.4375 7.3125 C-14.3346875 8.55 -14.3346875 8.55 -15.25 9.8125 C-17.4375 12.3125 -17.4375 12.3125 -19.90234375 12.64453125 C-22.43030795 12.62680359 -24.91915854 12.52876978 -27.4375 12.3125 C-27.01596667 7.53512231 -24.83344084 4.53262919 -21.4375 1.3125 C-15.20067631 -3.14237406 -6.86929723 -3.15859274 0 0 Z " fill="#06111E" transform="translate(636.4375,651.6875)"/>
<path d="M0 0 C4.19577669 2.51746602 6.81755344 6.32051844 9.23046875 10.48828125 C9.85546875 13.11328125 9.85546875 13.11328125 9.85546875 22.11328125 C0.28546875 22.11328125 -9.28453125 22.11328125 -19.14453125 22.11328125 C-16.96393292 28.9615402 -16.96393292 28.9615402 -13.14453125 31.11328125 C-9.6866711 31.61335919 -9.6866711 31.61335919 -6.14453125 31.11328125 C-5.56703125 30.45328125 -4.98953125 29.79328125 -4.39453125 29.11328125 C-1.01386653 26.10824595 2.218947 26.81246632 6.58984375 26.97265625 C7.3375 27.0190625 8.08515625 27.06546875 8.85546875 27.11328125 C7.54646602 32.61109271 5.1514771 35.64632714 0.85546875 39.11328125 C-3.69077356 41.89154044 -8.97636503 41.63899456 -14.14453125 41.11328125 C-19.85222956 39.60662486 -24.51477239 36.4415082 -27.89453125 31.61328125 C-30.67409526 26.05415324 -30.86306311 20.22483877 -30.14453125 14.11328125 C-27.75805497 7.01326677 -24.46388122 2.51292012 -17.89453125 -1.13671875 C-11.82435435 -2.79222154 -5.80806569 -2.4461115 0 0 Z " fill="#05101E" transform="translate(767.14453125,651.88671875)"/>
<path d="M0 0 C3.3 0 6.6 0 10 0 C10.33 9.24 10.66 18.48 11 28 C12.711875 26.02 14.42375 24.04 16.1875 22 C19.50200398 18.43789537 21.84072592 16.25025599 26.69140625 15.203125 C29.87375623 15.24504399 32.86664487 15.45418975 36 16 C31.84542161 21.91712679 27.22741666 27.01139933 22 32 C23.30555959 35.56490955 24.86486808 38.50188385 27.0390625 41.609375 C27.61914062 42.44597656 28.19921875 43.28257812 28.796875 44.14453125 C29.40015625 45.00433594 30.0034375 45.86414063 30.625 46.75 C31.82750462 48.47257518 33.02813519 50.19646068 34.2265625 51.921875 C35.02441162 53.06027832 35.02441162 53.06027832 35.83837891 54.22167969 C37 56 37 56 37 57 C32.49566399 57.67977022 28.47946887 57.93172952 24 57 C19.07496637 52.65042553 16.26180675 47.09462212 14 41 C13.34 41 12.68 41 12 41 C10.89485234 44.31544299 10.67892369 47.20410111 10.4375 50.6875 C10.35371094 51.86699219 10.26992188 53.04648437 10.18359375 54.26171875 C10.12300781 55.16535156 10.06242188 56.06898438 10 57 C6.7 57 3.4 57 0 57 C0 38.19 0 19.38 0 0 Z " fill="#030E1C" transform="translate(699,635)"/>
<path d="M0 0 C3.63 0 7.26 0 11 0 C11.33 0.99 11.66 1.98 12 3 C12.598125 2.505 13.19625 2.01 13.8125 1.5 C18.51815087 -0.71442394 22.88405342 -0.68362869 28 0 C32.004793 2.0023965 34.6587028 4.17998877 37 8 C38.17942085 11.53826255 38.11289189 14.34148726 38.09765625 18.07421875 C38.0962413 18.7580513 38.09482635 19.44188385 38.09336853 20.1464386 C38.08777876 22.32683722 38.07522822 24.50713251 38.0625 26.6875 C38.05748367 28.16731622 38.052921 29.64713406 38.04882812 31.12695312 C38.03781271 34.75133557 38.02055512 38.3756577 38 42 C34.37 42 30.74 42 27 42 C26.9906543 41.17274414 26.98130859 40.34548828 26.97167969 39.49316406 C26.91799681 35.74483585 26.8343429 31.99775838 26.75 28.25 C26.73582031 26.94804688 26.72164062 25.64609375 26.70703125 24.3046875 C26.67480469 23.05429687 26.64257812 21.80390625 26.609375 20.515625 C26.58842773 19.36352539 26.56748047 18.21142578 26.54589844 17.02441406 C25.89056659 13.39371151 24.95782752 12.1565564 22 10 C18.32690476 10 15.99338005 10.01483447 13.31713867 12.66894531 C11.62091458 15.67090038 11.56939843 17.85750651 11.48828125 21.296875 C11.45283203 22.50214844 11.41738281 23.70742188 11.38085938 24.94921875 C11.34702148 26.83060547 11.34702148 26.83060547 11.3125 28.75 C11.27833984 30.01972656 11.24417969 31.28945313 11.20898438 32.59765625 C11.12650999 35.73168274 11.05735516 38.86542955 11 42 C7.37 42 3.74 42 0 42 C0 28.14 0 14.28 0 0 Z " fill="#061221" transform="translate(918,573)"/>
<path d="M0 0 C3.67314051 3.03666731 5.69613739 5.80625402 6.875 10.4375 C6.91625 11.283125 6.9575 12.12875 7 13 C3.37 13 -0.26 13 -4 13 C-4.66 11.68 -5.32 10.36 -6 9 C-9.51108482 7.24445759 -13.1775105 7.33435959 -17 8 C-20.494827 10.710274 -21.72544875 12.14239793 -22.3671875 16.484375 C-22.48306162 20.83609185 -22.38935339 24.25104822 -20 28 C-16.85388747 30.09740836 -16.08811922 30.25328219 -12.5 30.1875 C-11.33984375 30.17783203 -11.33984375 30.17783203 -10.15625 30.16796875 C-7.81651151 30.0730565 -7.81651151 30.0730565 -5 29 C-4.67 27.35 -4.34 25.7 -4 24 C-0.37 24 3.26 24 7 24 C6.71363247 28.77279221 5.97297206 32.07279144 2.640625 35.64453125 C-2.44141725 39.84326615 -8.25978138 41.68443863 -14.80859375 41.30859375 C-21.91973743 40.30720275 -26.08297248 37.7416244 -30.58984375 32.10546875 C-34.18459962 26.73822938 -34.9642901 20.29866084 -34 14 C-31.80782394 6.95524005 -28.43540148 2.88335654 -22.18359375 -0.94140625 C-14.97749084 -4.43488369 -7.00859107 -3.61241355 0 0 Z " fill="#071220" transform="translate(761,575)"/>
<path d="M0 0 C14.19 0 28.38 0 43 0 C43 3.3 43 6.6 43 10 C37.72 10 32.44 10 27 10 C27 25.51 27 41.02 27 57 C23.37 57 19.74 57 16 57 C16 41.49 16 25.98 16 10 C10.72 10 5.44 10 0 10 C0 6.7 0 3.4 0 0 Z " fill="#020D1B" transform="translate(536,635)"/>
<path d="M0 0 C3.37862932 2.46615279 4.58925862 4.68408406 6.140625 8.5625 C6.140625 9.8825 6.140625 11.2025 6.140625 12.5625 C2.75991594 12.85282807 -0.48854718 13.00770367 -3.859375 12.5625 C-6.359375 10.125 -6.359375 10.125 -7.859375 7.5625 C-10.67938827 6.15249336 -12.72944755 6.31701549 -15.859375 6.5625 C-18.59976837 7.80813335 -20.3237618 8.87385445 -22.171875 11.25 C-23.63515428 16.1719394 -23.3570313 20.21882799 -21.609375 24.9375 C-19.42590354 28.26112025 -19.42590354 28.26112025 -15.859375 29.5625 C-11.72154267 29.58898175 -11.72154267 29.58898175 -7.859375 28.5625 C-7.240625 27.551875 -6.621875 26.54125 -5.984375 25.5 C-5.283125 24.530625 -4.581875 23.56125 -3.859375 22.5625 C-0.47602038 22.02008918 2.74245156 22.21230655 6.140625 22.5625 C5.91633088 28.05770595 4.66892467 31.04720838 0.86328125 35.05078125 C-4.20359867 39.49722689 -9.65725915 40.11483013 -16.14453125 39.91015625 C-21.81649951 39.18381787 -25.98789167 36.85353032 -29.734375 32.5625 C-34.70372376 25.5469488 -34.72307806 18.94394499 -33.859375 10.5625 C-31.97288719 5.33178381 -28.54666942 1.53493061 -23.859375 -1.4375 C-15.71275111 -5.22662739 -7.69948985 -4.26135288 0 0 Z " fill="#050F1D" transform="translate(685.859375,653.4375)"/>
<path d="M0 0 C3.63 0 7.26 0 11 0 C11 3.63 11 7.26 11 11 C14.3 11 17.6 11 21 11 C21 14.3 21 17.6 21 21 C17.7 21 14.4 21 11 21 C11.14013346 24.47948399 11.28682452 27.95847069 11.4375 31.4375 C11.47681641 32.43072266 11.51613281 33.42394531 11.55664062 34.44726562 C11.59853516 35.39150391 11.64042969 36.33574219 11.68359375 37.30859375 C11.72025146 38.18314209 11.75690918 39.05769043 11.79467773 39.95874023 C11.78181066 41.9927402 11.78181066 41.9927402 13 43 C14.34747084 43.23075082 15.70377565 43.41153063 17.0625 43.5625 C18.361875 43.706875 19.66125 43.85125 21 44 C21 47.3 21 50.6 21 54 C14.35622976 54.36909835 8.29006829 54.56925067 3 50 C-0.9475309 44.44822138 -0.34406049 38.64433946 -0.1875 32.125 C-0.17396484 31.05507813 -0.16042969 29.98515625 -0.14648438 28.8828125 C-0.11128624 26.25468489 -0.06204693 23.62760806 0 21 C-2.64 21 -5.28 21 -8 21 C-8 17.7 -8 14.4 -8 11 C-5.36 11 -2.72 11 0 11 C0 7.37 0 3.74 0 0 Z " fill="#0A1523" transform="translate(823,562)"/>
<path d="M0 0 C4.42484878 2.21242439 7.19476657 4.94799616 10 9 C11.62100654 13.86301963 11.39061285 17.7413586 9.875 22.625 C7.40343062 27.07382489 4.89266917 30.14642549 -0.14453125 31.6328125 C-5.50681694 32.49150902 -9.24837212 31.83270124 -14 29 C-18.16841479 24.93957523 -20.1668528 21.61660471 -20.375 15.8125 C-20.33028619 10.93869468 -19.59423079 8.06383817 -16.40625 4.37109375 C-11.48892092 -0.4233021 -6.66307936 -0.96256363 0 0 Z " fill="#022F6B" transform="translate(260,577)"/>
<path d="M0 0 C3.25894804 1.77012336 5.43189074 4.07036666 7.375 7.25 C8.92342842 14.06308505 8.50861048 19.82968503 5 26 C1.56108421 29.84349412 -1.78926632 30.81052571 -6.78515625 31.16796875 C-11.26892628 30.82792975 -13.91938523 28.1924025 -16.8125 25 C-19.53779283 20.41003313 -19.49691141 15.19498297 -19 10 C-15.65828542 0.67837512 -9.14313677 -2.243526 0 0 Z " fill="#F8F8F9" transform="translate(625,496)"/>
<path d="M0 0 C0.82780975 -0.01283524 1.65561951 -0.02567047 2.5085144 -0.03889465 C3.40434235 -0.04628159 4.30017029 -0.05366852 5.22314453 -0.0612793 C6.14306183 -0.06935104 7.06297913 -0.07742279 8.01077271 -0.08573914 C9.95931105 -0.09958162 11.90787366 -0.11030304 13.85644531 -0.11816406 C16.83721765 -0.13538975 19.81688459 -0.17927542 22.79736328 -0.22338867 C24.6892822 -0.2335144 26.58121055 -0.24203088 28.47314453 -0.2487793 C29.36492401 -0.26628738 30.25670349 -0.28379547 31.17550659 -0.30183411 C37.33132109 -0.28024323 37.33132109 -0.28024323 40.54394531 1.98095703 C42.64890015 5.19775431 42.52642841 7.42688619 41.98095703 11.17700195 C40.2005401 13.28439696 38.71762173 14.0754528 35.98364258 14.45233154 C33.42563413 14.57566933 30.88565609 14.59257877 28.32470703 14.57543945 C27.38542358 14.57830963 26.44614014 14.58117981 25.47839355 14.58413696 C23.49470415 14.58617627 21.51099457 14.58065574 19.52734375 14.56811523 C16.49189263 14.55205979 13.45777301 14.56796855 10.42236328 14.5871582 C8.49397493 14.58517575 6.5655874 14.58133203 4.63720703 14.57543945 C3.72982788 14.58151215 2.82244873 14.58758484 1.88757324 14.59384155 C-4.3337826 14.52443779 -4.3337826 14.52443779 -7.59521484 12.87084961 C-9.01904297 11.17700195 -9.01904297 11.17700195 -9.45654297 7.67700195 C-9.01904297 4.17700195 -9.01904297 4.17700195 -7.64404297 2.30200195 C-4.9421851 0.43148496 -3.24341749 0.043761 0 0 Z " fill="#020E1D" transform="translate(362.01904296875,456.822998046875)"/>
<path d="M0 0 C1.33653625 -0.01429802 1.33653625 -0.01429802 2.70007324 -0.02888489 C3.65949829 -0.02797348 4.61892334 -0.02706207 5.60742188 -0.02612305 C6.59488403 -0.03040817 7.58234619 -0.0346933 8.59973145 -0.03910828 C10.68773634 -0.04485192 12.77576124 -0.04535159 14.86376953 -0.04101562 C18.06382224 -0.037854 21.26295215 -0.06132046 24.46289062 -0.08666992 C26.49023321 -0.08894268 28.51757828 -0.08964652 30.54492188 -0.08862305 C31.50434692 -0.09783279 32.46377197 -0.10704254 33.45227051 -0.11653137 C34.34329468 -0.11030258 35.23431885 -0.10407379 36.15234375 -0.09765625 C36.93605347 -0.09828568 37.71976318 -0.0989151 38.52722168 -0.0995636 C41.136831 0.37705741 42.01601893 1.15331221 43.57617188 3.2746582 C44.23085217 9.38500761 44.23085217 9.38500761 42.32922363 11.96914673 C40.11826485 13.61566518 38.89242021 13.65449692 36.15234375 13.6628418 C35.26131958 13.67229828 34.37029541 13.68175476 33.45227051 13.6914978 C32.49284546 13.68542511 31.53342041 13.67935242 30.54492188 13.6730957 C29.55745972 13.67596588 28.56999756 13.67883606 27.5526123 13.68179321 C25.46459378 13.68383495 23.37655617 13.67829745 21.28857422 13.66577148 C18.08843304 13.6497197 14.88955491 13.6656168 11.68945312 13.68481445 C9.66210658 13.68283204 7.63476082 13.67898841 5.60742188 13.6730957 C4.1682843 13.68220474 4.1682843 13.68220474 2.70007324 13.6914978 C1.36353699 13.67731308 1.36353699 13.67731308 0 13.6628418 C-0.78370972 13.66045502 -1.56741943 13.65806824 -2.37487793 13.65560913 C-4.94500731 13.177758 -5.83369093 12.31138497 -7.42382812 10.2746582 C-7.99880072 7.42798014 -7.70493441 5.22627423 -7.42382812 2.2746582 C-4.29430238 0.1883077 -3.5633232 0.0209486 0 0 Z " fill="#03101F" transform="translate(360.423828125,486.725341796875)"/>
<path d="M0 0 C3.63 0 7.26 0 11 0 C11 19.14 11 38.28 11 58 C7.37 58 3.74 58 0 58 C0 38.86 0 19.72 0 0 Z " fill="#031223" transform="translate(691,557)"/>
<path d="M0 0 C3.31169787 2.57576501 4.92446761 4.77340283 6.25 8.75 C6.92950108 15.64526506 6.78796952 22.16157457 2.25 27.75 C-1.86843193 30.36925378 -6.0125013 30.54642526 -10.75 29.75 C-14.31364305 27.99454792 -16.34461495 25.5607701 -18.125 22 C-19.44695491 15.12583447 -19.48146759 9.62088018 -15.9453125 3.4140625 C-11.9972065 -2.08232036 -5.9520257 -2.70546623 0 0 Z " fill="#F8F9F9" transform="translate(687.75,496.25)"/>
<path d="M0 0 C0 3.63 0 7.26 0 11 C-2.24609375 11.16276042 -4.4921875 11.32552083 -6.73828125 11.48828125 C-9.41986625 12.09499565 -10.3353373 12.84362154 -12 15 C-13.01587978 18.04763934 -13.19804406 20.34718967 -13.31640625 23.54296875 C-13.35830078 24.61611328 -13.40019531 25.68925781 -13.44335938 26.79492188 C-13.50233398 28.47424805 -13.50233398 28.47424805 -13.5625 30.1875 C-13.60568359 31.31865234 -13.64886719 32.44980469 -13.69335938 33.61523438 C-13.7994901 36.41001025 -13.90025397 39.20498898 -14 42 C-17.63 42 -21.26 42 -25 42 C-25 28.47 -25 14.94 -25 1 C-21.37 1 -17.74 1 -14 1 C-13.67 2.32 -13.34 3.64 -13 5 C-12.21625 4.360625 -11.4325 3.72125 -10.625 3.0625 C-6.77510379 0.03758155 -4.85148682 -0.1054671 0 0 Z " fill="#031121" transform="translate(604,650)"/>
<path d="M0 0 C0 3.63 0 7.26 0 11 C-1.953125 11.09765625 -3.90625 11.1953125 -5.859375 11.29296875 C-9.06815525 12.3528031 -10.13705412 14.23328653 -12 17 C-12.6325717 19.8836852 -12.6325717 19.8836852 -12.609375 22.95703125 C-12.64160156 24.06884766 -12.67382812 25.18066406 -12.70703125 26.32617188 C-12.72830078 28.0519043 -12.72830078 28.0519043 -12.75 29.8125 C-12.77964844 30.98232422 -12.80929687 32.15214844 -12.83984375 33.35742188 C-12.91038637 36.23791219 -12.95747542 39.11895984 -13 42 C-16.63 42 -20.26 42 -24 42 C-24 28.47 -24 14.94 -24 1 C-20.37 1 -16.74 1 -13 1 C-12.67 2.32 -12.34 3.64 -12 5 C-11.21625 4.360625 -10.4325 3.72125 -9.625 3.0625 C-5.68857891 -0.03040229 -5.38386157 0 0 0 Z " fill="#031120" transform="translate(807,650)"/>
<path d="M0 0 C2.18260421 3.27390631 3.46541079 6.59688853 4.8203125 10.2578125 C5.21559647 11.31329788 5.21559647 11.31329788 5.61886597 12.3901062 C6.17366443 13.87381591 6.72661238 15.35821871 7.27783203 16.84326172 C8.12499196 19.12497834 8.97802132 21.40443326 9.83203125 23.68359375 C10.37013626 25.12487139 10.90790831 26.5662734 11.4453125 28.0078125 C11.82962936 29.03589523 11.82962936 29.03589523 12.22171021 30.08474731 C14 34.88356363 14 34.88356363 14 36 C5.09 36 -3.82 36 -13 36 C-10.65733333 28.19111111 -8.14467202 20.58983576 -5.375 12.9375 C-4.96765625 11.79861328 -4.5603125 10.65972656 -4.140625 9.48632812 C-3.75132812 8.40673828 -3.36203125 7.32714844 -2.9609375 6.21484375 C-2.60821777 5.23636475 -2.25549805 4.25788574 -1.89208984 3.24975586 C-1 1 -1 1 0 0 Z " fill="#F7F7F8" transform="translate(585,365)"/>
<path d="M0 0 C3.63 0 7.26 0 11 0 C11 13.86 11 27.72 11 42 C7.37 42 3.74 42 0 42 C0 28.14 0 14.28 0 0 Z " fill="#091727" transform="translate(851,573)"/>
<path d="M0 0 C3.63 0 7.26 0 11 0 C11 13.86 11 27.72 11 42 C7.37 42 3.74 42 0 42 C0 28.14 0 14.28 0 0 Z " fill="#0D1724" transform="translate(710,573)"/>
<path d="M0 0 C3.43952148 2.09362177 5.78028175 4.11907831 7 8 C7.48459952 13.23367486 6.82735806 16.55700877 4 21 C2.09872022 23.19378437 0.7676888 23.8703715 -2.08203125 24.3515625 C-6.49715648 24.62979593 -8.40296916 24.46021127 -12 21.6875 C-15.21353681 17.36930991 -15.57559819 13.25233349 -15 8 C-11.96177163 1.16398616 -7.46970988 -1.35137892 0 0 Z " fill="#F9F9F9" transform="translate(894,582)"/>
<path d="M0 0 C7.26 0 14.52 0 22 0 C22 33.66 22 67.32 22 102 C14.74 102 7.48 102 0 102 C0 96.375 0 96.375 3 93 C3 94.98 3 96.96 3 99 C8.28 99 13.56 99 19 99 C19 67.32 19 35.64 19 3 C13.39 3 7.78 3 2 3 C2 2.34 2 1.68 2 1 C1.34 0.67 0.68 0.34 0 0 Z " fill="#202832" transform="translate(649,339)"/>
<path d="M0 0 C2.8100346 1.79363911 4.50940468 3.01880935 6 6 C7.18298898 17.2890948 7.18298898 17.2890948 4.0625 21.75 C0.49247469 24.37287574 -1.49728378 24.84437944 -5.84375 24.50390625 C-9.60570411 23.62475393 -10.93509098 22.22642035 -13 19 C-14.29096902 14.15079762 -14.47235831 10.29898535 -12.75 5.5625 C-12.1725 4.716875 -11.595 3.87125 -11 3 C-10.608125 2.38125 -10.21625 1.7625 -9.8125 1.125 C-6.7291672 -0.78879277 -3.45613096 -0.62655006 0 0 Z " fill="#F7F7F8" transform="translate(667,582)"/>
<path d="M0 0 C3.0216321 0.73251687 4.80104733 2.27158096 6.93359375 4.46875 C8.28191479 7.16539208 8.10270057 9.33462521 8.12109375 12.34375 C8.13527344 13.39304687 8.14945313 14.44234375 8.1640625 15.5234375 C7.93407661 18.46257925 7.56873375 20.04591797 5.93359375 22.46875 C1.93198965 25.13648607 -1.36071773 25.18353813 -6.06640625 24.46875 C-8.56801443 22.59254387 -9.68586277 21.22983697 -11.06640625 18.46875 C-12.25099851 7.1643553 -12.25099851 7.1643553 -9.06640625 2.71875 C-5.71493062 0.20514328 -4.08189103 -0.30864961 0 0 Z " fill="#F9F9F9" transform="translate(616.06640625,581.53125)"/>
<path d="M0 0 C3.63 0 7.26 0 11 0 C11 19.14 11 38.28 11 58 C7.37 58 3.74 58 0 58 C0 38.86 0 19.72 0 0 Z M2 1 C2 19.15 2 37.3 2 56 C4.31 56 6.62 56 9 56 C9 37.85 9 19.7 9 1 C6.69 1 4.38 1 2 1 Z " fill="#040710" transform="translate(691,557)"/>
<path d="M0 0 C5.28 0 10.56 0 16 0 C16 17.49 16 34.98 16 53 C15.01 53.495 15.01 53.495 14 54 C14 36.84 14 19.68 14 2 C10.04 2 6.08 2 2 2 C2.01047363 3.44358887 2.02094727 4.88717773 2.03173828 6.37451172 C2.0678593 11.71563246 2.09087165 17.05674234 2.10986328 22.39794922 C2.11993892 24.71242079 2.13359975 27.02687959 2.15087891 29.34130859 C2.17505865 32.66246693 2.1864673 35.9834574 2.1953125 39.3046875 C2.20563507 40.34430634 2.21595764 41.38392517 2.22659302 42.45504761 C2.22674408 43.41589264 2.22689514 44.37673767 2.22705078 45.36669922 C2.231492 46.21497284 2.23593323 47.06324646 2.24050903 47.93722534 C2 50 2 50 0 52 C0 34.84 0 17.68 0 0 Z " fill="#292E33" transform="translate(568,466)"/>
<path d="M0 0 C3.63 0 7.26 0 11 0 C10.67 1.98 10.34 3.96 10 6 C9.67 4.68 9.34 3.36 9 2 C6.69 2 4.38 2 2 2 C2 14.21 2 26.42 2 39 C4.31 39 6.62 39 9 39 C8.98952637 38.39003174 8.97905273 37.78006348 8.96826172 37.15161133 C8.92653379 34.37194993 8.90062078 31.59235461 8.875 28.8125 C8.85824219 27.85279297 8.84148438 26.89308594 8.82421875 25.90429688 C8.81777344 24.97294922 8.81132813 24.04160156 8.8046875 23.08203125 C8.79421387 22.22843018 8.78374023 21.3748291 8.77294922 20.49536133 C9.02795806 17.69273185 9.84458578 15.55270581 11 13 C12.08266248 16.24798743 12.03436186 18.35896827 11.87890625 21.76171875 C11.83056641 22.87998047 11.78222656 23.99824219 11.73242188 25.15039062 C11.67634766 26.31763672 11.62027344 27.48488281 11.5625 28.6875 C11.51029297 29.86634766 11.45808594 31.04519531 11.40429688 32.25976562 C11.27453968 35.17340444 11.13791854 38.0867361 11 41 C7.37 41 3.74 41 0 41 C0 27.47 0 13.94 0 0 Z " fill="#02050E" transform="translate(783,651)"/>
<path d="M0 0 C3.63 0 7.26 0 11 0 C11 1.65 11 3.3 11 5 C10.01 5.495 10.01 5.495 9 6 C9 4.68 9 3.36 9 2 C6.69 2 4.38 2 2 2 C2 14.21 2 26.42 2 39 C4.31 39 6.62 39 9 39 C8.98952637 38.37955811 8.97905273 37.75911621 8.96826172 37.11987305 C8.92669114 34.30912323 8.90067067 31.4984381 8.875 28.6875 C8.85824219 27.71103516 8.84148438 26.73457031 8.82421875 25.72851562 C8.81777344 24.79072266 8.81132813 23.85292969 8.8046875 22.88671875 C8.79421387 22.02264404 8.78374023 21.15856934 8.77294922 20.26831055 C9 18 9 18 11 15 C11 23.58 11 32.16 11 41 C7.37 41 3.74 41 0 41 C0 27.47 0 13.94 0 0 Z " fill="#050B15" transform="translate(579,651)"/>
<path d="M0 0 C1.58193864 2.37290796 2.53089868 4.11962201 3.5078125 6.72265625 C3.77207031 7.42583984 4.03632812 8.12902344 4.30859375 8.85351562 C4.57800781 9.58248047 4.84742188 10.31144531 5.125 11.0625 C5.40214844 11.79533203 5.67929687 12.52816406 5.96484375 13.28320312 C8 18.74203356 8 18.74203356 8 21 C3.05 21 -1.9 21 -7 21 C-4.9376064 13.88474206 -2.59810321 6.93706745 0 0 Z " fill="#F3F4F5" transform="translate(561,571)"/>
<path d="M0 0 C1.875 1.0625 1.875 1.0625 3 3 C3.4375 6.5 3.4375 6.5 3 10 C1.4375 12 1.4375 12 -1 13 C-4.625 12.875 -4.625 12.875 -8 12 C-10 9 -10 9 -9.8125 5.4375 C-8.46874872 -0.24760157 -5.31129528 -0.55325992 0 0 Z " fill="#08111D" transform="translate(860,556)"/>
<path d="M0 0 C3.4375 0.8125 3.4375 0.8125 5.4375 3.8125 C5.25 7.375 5.25 7.375 4.4375 10.8125 C1.4375 12.8125 1.4375 12.8125 -2.125 12.625 C-5.5625 11.8125 -5.5625 11.8125 -7.5625 8.8125 C-7.375 5.25 -7.375 5.25 -6.5625 1.8125 C-3.5625 -0.1875 -3.5625 -0.1875 0 0 Z " fill="#040D1A" transform="translate(716.5625,556.1875)"/>
<path d="M0 0 C1.46373047 0.02707031 1.46373047 0.02707031 2.95703125 0.0546875 C3.69308594 0.07789063 4.42914062 0.10109375 5.1875 0.125 C4.88849803 3.41402165 4.46283915 5.68904634 2.6875 8.5 C-0.94929448 10.86391641 -4.57689296 10.82820889 -8.8125 10.125 C-10.8125 8.125 -10.8125 8.125 -10.9375 5 C-10.89625 4.05125 -10.855 3.1025 -10.8125 2.125 C-7.04027911 0.37336544 -4.145861 -0.09990027 0 0 Z " fill="#F3F4F5" transform="translate(794.8125,596.875)"/>
<path d="M0 0 C0.33 0 0.66 0 1 0 C1 12.54 1 25.08 1 38 C3.31 38 5.62 38 8 38 C8 25.46 8 12.92 8 0 C8.66 0.33 9.32 0.66 10 1 C10 13.87 10 26.74 10 40 C6.7 40 3.4 40 0 40 C0 26.8 0 13.6 0 0 Z " fill="#000107" transform="translate(852,575)"/>
<path d="M0 0 C1.28132812 0.00902344 2.56265625 0.01804687 3.8828125 0.02734375 C4.87023437 0.03894531 5.85765625 0.05054688 6.875 0.0625 C4.55092155 7.30931002 4.55092155 7.30931002 1.875 9.0625 C-1.69457573 9.9062179 -4.09734618 10.45775147 -7.5625 9.125 C-8.078125 8.774375 -8.59375 8.42375 -9.125 8.0625 C-9.125 5.7525 -9.125 3.4425 -9.125 1.0625 C-6.12186252 -0.43906874 -3.33432478 -0.03031204 0 0 Z " fill="#F5F6F6" transform="translate(628.125,674.9375)"/>
<path d="M0 0 C2.4375 1.1875 2.4375 1.1875 4 3 C4 4.65 4 6.3 4 8 C-1.28 8.66 -6.56 9.32 -12 10 C-8.87591241 -0.93430657 -8.87591241 -0.93430657 0 0 Z " fill="#F3F4F4" transform="translate(630,658)"/>
<path d="M0 0 C0.33 0 0.66 0 1 0 C1 12.54 1 25.08 1 38 C3.31 38 5.62 38 8 38 C7.98952637 37.31373535 7.97905273 36.6274707 7.96826172 35.92041016 C7.92678126 32.82197711 7.90069931 29.72360239 7.875 26.625 C7.85824219 25.54476562 7.84148438 24.46453125 7.82421875 23.3515625 C7.81777344 22.3203125 7.81132813 21.2890625 7.8046875 20.2265625 C7.79421387 19.27346191 7.78374023 18.32036133 7.77294922 17.33837891 C8 15 8 15 10 13 C10 21.91 10 30.82 10 40 C6.7 40 3.4 40 0 40 C0 26.8 0 13.6 0 0 Z " fill="#000208" transform="translate(919,575)"/>
<path d="M0 0 C2.9375 0.8125 2.9375 0.8125 4.9375 2.8125 C5.3125 5.75 5.3125 5.75 4.9375 8.8125 C3.25 10.75 3.25 10.75 0.9375 11.8125 C-2.43286311 11.57175978 -3.65048021 11.22451979 -6.0625 8.8125 C-6.39552312 5.6820827 -6.53921956 3.63351702 -4.9375 0.875 C-3.0625 -0.1875 -3.0625 -0.1875 0 0 Z " fill="#F0F4F6" transform="translate(211.0625,549.1875)"/>
<path d="M0 0 C1.875 1.0625 1.875 1.0625 3 3 C2.55555556 9.44444444 2.55555556 9.44444444 1 11 C-2.4375 11.1875 -2.4375 11.1875 -6 11 C-8 9 -8 9 -8.3125 5.5 C-8.209375 4.345 -8.10625 3.19 -8 2 C-4.76746204 -0.15502531 -3.74849077 -0.46856135 0 0 Z " fill="#F3F6F8" transform="translate(258,587)"/>
<path d="M0 0 C1.875 1.0625 1.875 1.0625 3 3 C2.8125 6.625 2.8125 6.625 2 10 C-0.76250036 11.38125018 -2.94731099 11.19079306 -6 11 C-8 9 -8 9 -8.3125 5.5 C-8.209375 4.345 -8.10625 3.19 -8 2 C-4.76746204 -0.15502531 -3.74849077 -0.46856135 0 0 Z " fill="#F1F5F8" transform="translate(195,504)"/>
<path d="M0 0 C2.09765625 0.35546875 2.09765625 0.35546875 4.16015625 2.10546875 C5.09765625 4.35546875 5.09765625 4.35546875 5.09765625 8.35546875 C3.13939752 8.38241726 1.18103399 8.40184093 -0.77734375 8.41796875 C-1.86789062 8.42957031 -2.9584375 8.44117188 -4.08203125 8.453125 C-6.90234375 8.35546875 -6.90234375 8.35546875 -8.90234375 7.35546875 C-9.71484375 5.48046875 -9.71484375 5.48046875 -9.90234375 3.35546875 C-7.10375492 -0.3669261 -4.37403804 -0.1493574 0 0 Z " fill="#F3F3F4" transform="translate(794.90234375,580.64453125)"/>
<path d="M0 0 C3.5 0.25 3.5 0.25 5.5 2.25 C5.75 5.25 5.75 5.25 5.5 8.25 C3.5 10.25 3.5 10.25 0 10.5 C-3.5 10.25 -3.5 10.25 -5.5 8.25 C-5.75 5.25 -5.75 5.25 -5.5 2.25 C-3.5 0.25 -3.5 0.25 0 0 Z " fill="#F6F8F9" transform="translate(245.5,442.75)"/>
<path d="M0 0 C2.9375 2.375 2.9375 2.375 5 5 C5 5.66 5 6.32 5 7 C-0.94 7 -6.88 7 -13 7 C-9.21084682 0.68474471 -7.27174756 -0.87762471 0 0 Z " fill="#F9FAFA" transform="translate(761,659)"/>
<path d="M0 0 C0.33 0 0.66 0 1 0 C1 8.91 1 17.82 1 27 C-2.63 27 -6.26 27 -10 27 C-10 18.42 -10 9.84 -10 1 C-9.67 1 -9.34 1 -9 1 C-8.67 8.92 -8.34 16.84 -8 25 C-5.69 25 -3.38 25 -1 25 C-1.00523682 24.34926514 -1.01047363 23.69853027 -1.01586914 23.02807617 C-1.03664938 20.08122726 -1.0496635 17.13439377 -1.0625 14.1875 C-1.07087891 13.16333984 -1.07925781 12.13917969 -1.08789062 11.08398438 C-1.09111328 10.10107422 -1.09433594 9.11816406 -1.09765625 8.10546875 C-1.10289307 7.19949951 -1.10812988 6.29353027 -1.11352539 5.36010742 C-1 3 -1 3 0 0 Z " fill="#151921" transform="translate(955,588)"/>
<path d="M0 0 C0.66 0.33 1.32 0.66 2 1 C2 10.57 2 20.14 2 30 C-1.3 30 -4.6 30 -8 30 C-8 28.35 -8 26.7 -8 25 C-7.67 25.99 -7.34 26.98 -7 28 C-4.69 28 -2.38 28 0 28 C0 18.76 0 9.52 0 0 Z " fill="#181C23" transform="translate(809,585)"/>
<path d="M0 0 C3.3 0 6.6 0 10 0 C10 1.65 10 3.3 10 5 C9.01 5.495 9.01 5.495 8 6 C8 4.68 8 3.36 8 2 C5.69 2 3.38 2 1 2 C1 14.21 1 26.42 1 39 C0.67 39 0.34 39 0 39 C0 26.13 0 13.26 0 0 Z " fill="#000106" transform="translate(580,651)"/>
<path d="M0 0 C0 0.33 0 0.66 0 1 C-12.375 1.495 -12.375 1.495 -25 2 C-24.39144973 5.04275136 -23.77610498 8.00645224 -23 11 C-25.69378051 8.48580485 -27.44805246 6.32759923 -29 3 C-20.5880946 -2.60793693 -9.64728353 -2.30410849 0 0 Z " fill="#1E4EB2" transform="translate(327,391)"/>
<path d="M0 0 C1 3 1 3 0 6 C-7.59 6 -15.18 6 -23 6 C-22.34 4.35 -21.68 2.7 -21 1 C-20.67 1.66 -20.34 2.32 -20 3 C-13.73 3.33 -7.46 3.66 -1 4 C-0.67 2.68 -0.34 1.36 0 0 Z " fill="#0D1219" transform="translate(558,435)"/>
<path d="M0 0 C-1.32 1.32 -2.64 2.64 -4 4 C-4 3.34 -4 2.68 -4 2 C-9.14943758 1.83388911 -11.7507559 1.9857451 -15.82421875 5.29296875 C-18.30112818 7.79814533 -20.68893223 10.34154834 -23 13 C-23 8.9158996 -21.53031481 7.80684923 -18.8125 4.8125 C-12.91365062 -1.01864379 -7.94430309 -1.12066971 0 0 Z " fill="#010309" transform="translate(735,651)"/>
<path d="M0 0 C1.5 1.375 1.5 1.375 3 3 C3 3.66 3 4.32 3 5 C-4.59 5 -12.18 5 -20 5 C-20 4.34 -20 3.68 -20 3 C-10.1 2.505 -10.1 2.505 0 2 C0 1.34 0 0.68 0 0 Z " fill="#0D1119" transform="translate(633,436)"/>
<path d="M0 0 C4.95 0 9.9 0 15 0 C15 1.65 15 3.3 15 5 C14.67 4.01 14.34 3.02 14 2 C10.04 2 6.08 2 2 2 C2.66 5.3 3.32 8.6 4 12 C-0.07251511 7.92748489 0.40737904 5.62183078 0 0 Z " fill="#02040A" transform="translate(535,517)"/>
<path d="M0 0 C0.66 1.32 1.32 2.64 2 4 C1 5 1 5 -0.94946289 5.11352539 C-1.7821167 5.10828857 -2.61477051 5.10305176 -3.47265625 5.09765625 C-4.37177734 5.09443359 -5.27089844 5.09121094 -6.19726562 5.08789062 C-7.14279297 5.07951172 -8.08832031 5.07113281 -9.0625 5.0625 C-10.01189453 5.05798828 -10.96128906 5.05347656 -11.93945312 5.04882812 C-14.29303065 5.0370011 -16.64648477 5.02052025 -19 5 C-18.67 3.68 -18.34 2.36 -18 1 C-18 1.66 -18 2.32 -18 3 C-12.06 3 -6.12 3 0 3 C0 2.01 0 1.02 0 0 Z " fill="#21252A" transform="translate(766,663)"/>
<path d="M0 0 C0.33 0 0.66 0 1 0 C1.18175781 1.12277344 1.36351562 2.24554687 1.55078125 3.40234375 C2.84431093 11.17653522 4.17699468 18.60641464 7 26 C1.38040449 21.14778623 -0.40422753 13.88043748 -1.28515625 6.6640625 C-1.32265096 4.12513469 -1.14295322 2.28590643 0 0 Z " fill="#011F51" transform="translate(162,560)"/>
<path d="M0 0 C0.66 0.33 1.32 0.66 2 1 C1.3503125 1.8353125 1.3503125 1.8353125 0.6875 2.6875 C-1.06984062 4.99774171 -1.06984062 4.99774171 -2.5 7.6875 C-4 10 -4 10 -7 11 C-7.71706982 12.98248715 -8.38290413 14.98415349 -9 17 C-9.66 17.66 -10.32 18.32 -11 19 C-10.41854143 15.08391156 -9.2458542 12.30903207 -7.1875 8.9375 C-6.68605469 8.10089844 -6.18460938 7.26429688 -5.66796875 6.40234375 C-3.98146821 3.97330901 -2.15142231 2.02075024 0 0 Z " fill="#061F5D" transform="translate(198,407)"/>
<path d="M0 0 C1.05767578 0.49113281 1.05767578 0.49113281 2.13671875 0.9921875 C5.23867167 2.08400722 7.54006053 2.20385396 10.8125 2.125 C11.78832031 2.10695313 12.76414062 2.08890625 13.76953125 2.0703125 C14.50558594 2.04710937 15.24164062 2.02390625 16 2 C16 2.99 16 3.98 16 5 C14.22950311 5.05410687 12.45853151 5.09284119 10.6875 5.125 C9.20830078 5.15980469 9.20830078 5.15980469 7.69921875 5.1953125 C5 5 5 5 2 3 C1.34 2.01 0.68 1.02 0 0 Z " fill="#121B27" transform="translate(662,688)"/>
<path d="M0 0 C3.3 0 6.6 0 10 0 C10 3.96 10 7.92 10 12 C9.67 12 9.34 12 9 12 C9 8.7 9 5.4 9 2 C6.69 2 4.38 2 2 2 C2 4.97 2 7.94 2 11 C1.67 11 1.34 11 1 11 C0.67 7.37 0.34 3.74 0 0 Z " fill="#000208" transform="translate(823,562)"/>
<path d="M0 0 C3.67230705 3.07999946 4.56802365 5.2482602 5 10 C1.37 10 -2.26 10 -6 10 C-5.67 9.01 -5.34 8.02 -5 7 C-2.36 7.33 0.28 7.66 3 8 C2.505 7.05125 2.01 6.1025 1.5 5.125 C0 2 0 2 0 0 Z " fill="#04070D" transform="translate(763,578)"/>
<path d="M0 0 C2.79794127 0.01798163 5.56201769 0.11890813 8.3515625 0.33203125 C7.74972501 2.35248567 7.07850154 4.35314164 6.3515625 6.33203125 C5.3615625 6.82703125 5.3615625 6.82703125 4.3515625 7.33203125 C4.6815625 6.01203125 5.0115625 4.69203125 5.3515625 3.33203125 C-0.4458798 3.08774782 -0.4458798 3.08774782 -5.6484375 5.33203125 C-4.52887184 1.88721383 -3.69126529 0.46276925 0 0 Z " fill="#03060C" transform="translate(767.6484375,678.66796875)"/>
<path d="M0 0 C3 1 3 1 4.1328125 2.7421875 C4.46023438 3.44601562 4.78765625 4.14984375 5.125 4.875 C5.45757813 5.57367187 5.79015625 6.27234375 6.1328125 6.9921875 C7.93514451 11.16515441 8.08528736 14.47976969 8 19 C7.34 19 6.68 19 6 19 C5.94392578 18.12988281 5.94392578 18.12988281 5.88671875 17.2421875 C5.45907142 12.16073097 4.60507765 8.48073356 2 4 C1.33333333 2.66666667 0.66666667 1.33333333 0 0 Z " fill="#191C21" transform="translate(904,578)"/>
<path d="M0 0 C2.9375 0.375 2.9375 0.375 6 1 C6.33 1.66 6.66 2.32 7 3 C6.34 3.66 5.68 4.32 5 5 C4.67 4.67 4.34 4.34 4 4 C2.65984779 3.84417697 1.31241097 3.74955858 -0.03515625 3.68359375 C-0.84404297 3.64169922 -1.65292969 3.59980469 -2.48632812 3.55664062 C-3.33646484 3.51732422 -4.18660156 3.47800781 -5.0625 3.4375 C-5.91650391 3.39431641 -6.77050781 3.35113281 -7.65039062 3.30664062 C-9.76672037 3.20023298 -11.88333813 3.09958269 -14 3 C-14 2.67 -14 2.34 -14 2 C-9.38 1.67 -4.76 1.34 0 1 C0 0.67 0 0.34 0 0 Z " fill="#0C1928" transform="translate(396,457)"/>
<path d="M0 0 C3.63 0 7.26 0 11 0 C10.67 1.98 10.34 3.96 10 6 C9.67 4.68 9.34 3.36 9 2 C6.03 2 3.06 2 0 2 C0 1.34 0 0.68 0 0 Z " fill="#01030B" transform="translate(783,651)"/>
<path d="M0 0 C0.66 0 1.32 0 2 0 C2 3.63 2 7.26 2 11 C-0.97 10.505 -0.97 10.505 -4 10 C-2.68 9.67 -1.36 9.34 0 9 C0 6.03 0 3.06 0 0 Z " fill="#20242A" transform="translate(602,650)"/>
<path d="M0 0 C0.33 0 0.66 0 1 0 C2.32854177 5.9180497 1.66464729 8.77729131 -1 14 C-1.33 14 -1.66 14 -2 14 C-1.43393721 9.30976546 -0.81462495 4.65499974 0 0 Z " fill="#489EF1" transform="translate(279,616)"/>
<path d="M0 0 C3.63 0.33 7.26 0.66 11 1 C11 1.66 11 2.32 11 3 C7.04 3 3.08 3 -1 3 C-0.67 2.01 -0.34 1.02 0 0 Z " fill="#01020B" transform="translate(535,612)"/>
<path d="M0 0 C1.43088528 2.86177057 0.59991697 4.93375773 0 8 C1.32 8.99 2.64 9.98 4 11 C0.75791433 10.64950425 -0.61527704 10.43778819 -2.8125 7.9375 C-3.204375 7.298125 -3.59625 6.65875 -4 6 C-2.68 4.02 -1.36 2.04 0 0 Z " fill="#0432A6" transform="translate(303,639)"/>
<path d="M0 0 C0.99 0.66 1.98 1.32 3 2 C1.68 2 0.36 2 -1 2 C-0.41196203 5.02419525 0.22678118 8.01758453 1 11 C-1.66735273 8.51047079 -3.55746343 6.36591866 -5 3 C-3.35 2.01 -1.7 1.02 0 0 Z " fill="#0B3EAD" transform="translate(303,391)"/>
<path d="M0 0 C3.3 0 6.6 0 10 0 C9.67 1.65 9.34 3.3 9 5 C8.67 4.01 8.34 3.02 8 2 C5.36 2 2.72 2 0 2 C0 1.34 0 0.68 0 0 Z " fill="#0B1019" transform="translate(919,573)"/>
<path d="M0 0 C0.99 0.66 1.98 1.32 3 2 C2.01 2.33 1.02 2.66 0 3 C-1.02700444 5.32891096 -1.02700444 5.32891096 -1.6875 8.0625 C-1.93886719 8.98160156 -2.19023437 9.90070313 -2.44921875 10.84765625 C-2.63097656 11.55792969 -2.81273437 12.26820313 -3 13 C-3.33 13 -3.66 13 -4 13 C-3.50269348 8.02693484 -2.44697666 4.36200187 0 0 Z " fill="#0A1B4C" transform="translate(141,497)"/>
<path d="M0 0 C2.97 0 5.94 0 9 0 C9 0.99 9 1.98 9 3 C6.03 3 3.06 3 0 3 C0 2.01 0 1.02 0 0 Z " fill="#111B27" transform="translate(661,613)"/>
<path d="M0 0 C2.12493141 -0.02693575 4.24995912 -0.04636628 6.375 -0.0625 C7.55835938 -0.07410156 8.74171875 -0.08570313 9.9609375 -0.09765625 C13 0 13 0 15 1 C15 1.66 15 2.32 15 3 C14.38125 2.855625 13.7625 2.71125 13.125 2.5625 C8.77462983 1.77943337 4.39978093 1.40153341 0 1 C0 0.67 0 0.34 0 0 Z " fill="#55AAF6" transform="translate(257,402)"/>
<path d="M0 0 C1.32 0 2.64 0 4 0 C4 2.97 4 5.94 4 9 C2.68 8.67 1.36 8.34 0 8 C0.99 8 1.98 8 3 8 C3 6.35 3 4.7 3 3 C1.68 2.34 0.36 1.68 -1 1 C-0.67 0.67 -0.34 0.34 0 0 Z " fill="#0F1A28" transform="translate(802,650)"/>
<path d="M0 0 C0.99 0.33 1.98 0.66 3 1 C3 3.31 3 5.62 3 8 C2.01 8 1.02 8 0 8 C0 5.36 0 2.72 0 0 Z " fill="#F0F1F3" transform="translate(879,590)"/>
<path d="M0 0 C0.33 0.66 0.66 1.32 1 2 C0.35561283 3.67540664 -0.31246699 5.34183216 -1 7 C-1 7.99 -1 8.98 -1 10 C-1.66 10 -2.32 10 -3 10 C-3.33 10.66 -3.66 11.32 -4 12 C-3.5317879 7.22423661 -2.75668002 3.95523655 0 0 Z " fill="#060A11" transform="translate(221,313)"/>
<path d="M0 0 C2.97 0.99 5.94 1.98 9 3 C9 3.33 9 3.66 9 4 C2.25 4.125 2.25 4.125 0 3 C0 2.01 0 1.02 0 0 Z " fill="#121A22" transform="translate(449,359)"/>
<path d="M0 0 C3 3.75 3 3.75 3 6 C-0.3 5.34 -3.6 4.68 -7 4 C-7 3.67 -7 3.34 -7 3 C-4.69 3 -2.38 3 0 3 C0 2.01 0 1.02 0 0 Z " fill="#EDEEF0" transform="translate(347,351)"/>
<path d="M0 0 C0 0.99 0 1.98 0 3 C-1.98 3.33 -3.96 3.66 -6 4 C-6 3.01 -6 2.02 -6 1 C-4 0 -4 0 0 0 Z " fill="#151D28" transform="translate(625,650)"/>
<path d="M0 0 C0.99 0.33 1.98 0.66 3 1 C2.34 1 1.68 1 1 1 C1 1.66 1 2.32 1 3 C-1.375 4.0625 -1.375 4.0625 -4 5 C-4.66 4.67 -5.32 4.34 -6 4 C-3.1875 1.9375 -3.1875 1.9375 0 0 Z " fill="#4DA5F5" transform="translate(253,403)"/>
</svg>
